<svg xmlns="http://www.w3.org/2000/svg" viewBox="0 0 800 800">
  <title>http-illustration-500</title>
  <g id="f28cb7ab-0c87-4f61-8d9c-f944efc13add" data-name="Layer 2">
    <g>
      <path d="M218,530.67l40.09-21.09c1.87,13.12,8.67,21.56,20.86,21.56s19-10.08,19-23.2-6.8-23.21-19-23.21c-11.25,0-16.88,8.2-19.22,16.17l-36.57-16.17,10.08-82.05h96.11V439H267.24l-1.17,9.61a166.43,166.43,0,0,1-3.52,17.81l.47.24c5.39-6.1,15.24-12,29.3-12,25.32,0,47.59,19.46,47.59,53.22,0,35.63-25.32,59.77-60,59.77C249,567.71,226.45,552.24,218,530.67Z" fill="#1d1d1b"/>
      <path d="M414.46,399.87c39.38,0,67.51,29.07,67.51,83.45s-28.13,84.39-67.51,84.39-67.52-30-67.52-84.39S375.07,399.87,414.46,399.87Zm0,131.27c17.81,0,23-24.38,23-47.82s-5.16-46.88-23-46.88-23,23.44-23,46.88S396.64,531.14,414.46,531.14Z" fill="#1d1d1b"/>
      <path d="M572,399.87c39.38,0,67.51,29.07,67.51,83.45S611.37,567.71,572,567.71s-67.51-30-67.51-84.39S532.61,399.87,572,399.87Zm0,131.27c17.81,0,23-24.38,23-47.82s-5.16-46.88-23-46.88-23,23.44-23,46.88S554.17,531.14,572,531.14Z" fill="#1d1d1b"/>
    </g>
  </g>
  <g id="08ac577d-6c5c-4688-9a05-06d97dc54f7e" data-name="Layer 6">
    <path d="M782.2,405.82a6.62,6.62,0,0,0-1.1-2c-.21-1-.43-2.06-.64-3.1-.91-4.47-7.86-4.3-8.88,0-.27,1.16-.6,2.31-1,3.43a5.4,5.4,0,0,0-.9,2.42c-3.38,8.15-9.56,14.67-18,16.85l-.78.19a25.49,25.49,0,0,1-6,.6c-14.66-.26-23.25-12.82-30.49-23.9-16.75-25.63-29.52-53.54-45-79.91C643.13,275.6,607.19,220.1,549.55,216.64c-25.49-1.53-54.4,10.13-67.36,33.11a3.68,3.68,0,0,1-.05-.89c.07-.38.24-.77.35-1.15.05-.17-.21-.24-.27-.07a10.8,10.8,0,0,1-.4,1.13.94.94,0,0,1-.47.63c-14.86-12.7-34-19.27-53.59-20.08-22.11-.9-44.46,7.52-60.89,22.33-10,9-17.41,20.41-26,30.73-8.11,9.76-18.17,16.93-29.57,22.38-12.79,6.11-26.61,9.71-40.23,13.43-11.53,3.14-25,7.09-36.79,3.42a21.47,21.47,0,0,0-8.33-6.35,3.07,3.07,0,0,0-2.56-2.11c-16.24-1.48-32.19,3.07-46.32,10.92a124.25,124.25,0,0,0-11.61,7.37l-.67.32c-3.56,1.6-7.25,2.84-10.94,4.11-5.27,1.82-10.59,3.41-15.86,5.2-.93.16-1.87.34-2.79.56a34.59,34.59,0,0,0-10.78,4.66c-10.14,4.38-19.86,10.07-25.67,19.79-4.23,7.07-4.28,14.9-2.53,22.58a68.15,68.15,0,0,0,3.67,20.27c2.5,7,5.78,13.07,12,17.41,3.59,2.51,7.73,3.17,11.85,3.88.6.86,1.21,1.7,1.8,2.57,1.34,2,3.06,4.17,4.63,6.5.92,3.62,1.87,7.23,2.82,10.83.18,1.2.37,2.39.54,3.58.57,4.08.22,9.48,4.49,11.49a2.62,2.62,0,0,0,3-.38,6,6,0,0,0,1.51-1.91c16.25-10.4,27.36-27.07,32.3-45.61s4-40.19-3.15-58.37q5.85-3.32,11.56-6.9c-.21,1.2-.4,2.35-.58,3.44A229.81,229.81,0,0,0,180.59,411a43.07,43.07,0,0,0,1.12,7.93,3,3,0,0,0-1.14,2.85c.06.42.09.84.14,1.26-.85,3.44-1.51,6.92-2.19,10.39-1.33,6.73-2.17,13.55-3.05,20.36-1.79,13.9-3.25,27.88-3.95,41.88-2,4.32-3.15,9.27-4.33,13.49-1.69,6-4.43,14.14,1.54,18.59a1.56,1.56,0,0,0,2.33-1.34,47.59,47.59,0,0,1,.76-11.79c0,.06,0,.11,0,.17.86,5.45,2.42,14.11,7.26,17.37a2.22,2.22,0,0,0,3.24-1.32c.84-3.13-.31-5.5-1.32-8.5-.43-1.3-.83-2.62-1.21-3.94a26.84,26.84,0,0,0,4.39,5.18,3.13,3.13,0,0,0,3.1.82,3,3,0,0,0,1.9-1.46,3.2,3.2,0,0,0,0-3.22,64.49,64.49,0,0,1-8.56-18.14,4,4,0,0,0,.75-1.53c1.78-7.07,2.51-14.45,4-21.6s3.22-14.12,5.07-21.13c3-11.41,4.9-23.75,1.5-35.22,1.76-1.88,2.51-4.63,3.29-7.08,1.27-4,2.38-8.13,3.38-12.24.15-.61.29-1.22.43-1.84.09,2.61.21,5.21.4,7.8a48.77,48.77,0,0,0,1.51,9.71c-.91,3.83-.83,7.7-1,11.89a103.05,103.05,0,0,0-.2,10.67c-.65,6.23-1.11,12.49-1.39,18.74-.38,8.45-1.71,19.44,1.1,28.21-2.84,6-3.11,13.94-3.08,20.17,0,6.7.09,14,6.29,17.95,1.58,1,3-.3,3.13-1.78,1.59,2.38,3.74,4,6.63,3.78a2,2,0,0,0,2-2,7.31,7.31,0,0,0-.3-1.52,7,7,0,0,0,1.09.63c3.63,1.66,7.27-2.5,4.37-5.65-2.34-2.53-3.54-6.33-4.89-9.47-1.64-3.8-3.17-7.65-4.75-11.48-.08-.2-.45-1.21-1-2.41a3.86,3.86,0,0,0,2.81-4.39c-.8-7.55.29-15.62,1-23.17.74-7.95,2-15.88,3.39-23.74,1.27-7.15,3-16,.69-23.07,1.87-3.8,2.71-8.23,3.84-12.38L226,390.15a62.64,62.64,0,0,0,25.82,7.71,57.89,57.89,0,0,0,21.33-2.47c3.58-1.11,7.19-2.09,10.75-3.24,4.29-1.38,7.39-3.67,11.36-5.52,8-3.71,16.3-.82,24.11,1.93,8.39,2.95,16.5,5.25,25.4,6.11,16.26,1.58,33.5.46,49.68-1.73,9.7-1.32,19.28-3.66,28-7.82a64.92,64.92,0,0,0,8.28,7.71,85.61,85.61,0,0,0,20.8,11.57q7,2.87,14.1,5.64c2.42.95,4.61,2.11,6.84,2.52a93.11,93.11,0,0,0,.79,19.23c1.65,11.79,5.39,24.09,12.72,33.64a7.63,7.63,0,0,0,2.06,1.89c-.13.56-.25,1.09-.32,1.54-.4,2.58-.79,5.17-1.19,7.75-.74,4.85-1.37,9.72-2.06,14.58-1.16,8.08-3.4,17.27,1,24.8a4.62,4.62,0,0,0,4,2.31c4.24-.2,4.88-4,4.24-7.55a56.12,56.12,0,0,1-.71-5.88c2.18,2.26,5.93,0,5.42-3.19-.22-1.38-.49-2.74-.79-4.1,2.28-.49,3-2.9,3.19-4.94.44-3.92.79-7.92.9-11.86.18-6.43-.31-14.14-3-20.33,1.94-6.51-.25-14.51.36-21,1.16-12.31,7.55-23.06,11.81-34.42,3.78-10.09,2.87-19-1.95-28.49-.32-.62-.65-1.23-1-1.83,1.29.1,2.58.18,3.87.23a136,136,0,0,0,15.11-.18c2.13-.14,4.6-.73,6.73-.48,2.93.34,3.94,1.86,5.71,4,9.41,11.54,26.31,21.68,41.79,18.73a5,5,0,0,0,2.87-1.54,3.28,3.28,0,0,0,.31-.2,4.5,4.5,0,0,0,1.24.77l19.93,8.05c7.36,28.43,18.41,55.22,39.48,76.94C656.48,493,671.2,504.88,688,507.57c17.56,2.81,37.6-.7,54.05-7.16,16.7-6.56,32.25-18,40.37-34.36C792,446.71,789.16,425.46,782.2,405.82ZM522.7,247c.07.16.15.32.22.47l-1.32-.14Zm53.11,131.94a60,60,0,0,1-9.94-11.46,82.93,82.93,0,0,1-7-12.27c-1.92-4.25-3.29-8.72-7-11.83s-8.41-4.3-12.57-6.13a77.24,77.24,0,0,1-13.39-7c-1-.68-1.92-1.39-2.84-2.12a14.66,14.66,0,0,0-1.9-1.75l-1.31-1a46,46,0,0,1-7.36-8.63c0-.15,0-.29,0-.44a92.93,92.93,0,0,0-19.34-54.24c10.24-10.37,24-11.81,36.91-7.82A63.81,63.81,0,0,0,543,260.17c12.81,7.93,22.54,19.85,30.15,32.72,16.67,28.23,21.31,60.66,27.91,92.22-.83-.56-1.65-1.09-2.49-1.6-4.49-2.68-10.18-2.93-13.82,1.25a6.68,6.68,0,0,0-.7,1C581.7,383.16,578.32,381.14,575.81,378.94Z" fill="#fd4f00"/>
    <path d="M92.89,399.71c-.45-2.2-2.87-2.9-4.68-2.19a2.36,2.36,0,0,0-2.7.71,38.79,38.79,0,0,0-8.19,15.12c-6.15,13.33-.63,32.36,4.48,44.52,1.34,3.2,4.66,4.27,7.42,2,6.93-5.77,5.93-18.79,6.33-26.89A131,131,0,0,0,92.89,399.71Z" fill="#fd4f00"/>
    <path d="M92.06,385.83c-3.34-11.22-20.84-8.3-28.36-3.88-11.35,6.67-17.16,19.15-22.14,30.74-1.23,2.87,1.31,5.75,4.3,4.3,8.54-4.15,17.65-7.82,25.74-12.81a34.33,34.33,0,0,0,8.83-7.68c2.23-2.78,4.08-5.72,7.06-7.62a13.12,13.12,0,0,0,2,.33A2.69,2.69,0,0,0,92.06,385.83Z" fill="#fd4f00"/>
    <path d="M129.41,415.29c-1-1.11-2-2.19-3-3.29s-1.39-1.9-3-2a1.27,1.27,0,0,0-1.27,1.26c.12,1.68,1.09,2.17,2.3,3.19a43.39,43.39,0,0,1,3.82,3.35c2.24,2.46-2.7,1.42-3.72,1.12a19.71,19.71,0,0,1-4.74-2.16c-.22-.13-.49.21-.28.37a20.46,20.46,0,0,0,6,3.28c1.67.56,4.21,1.66,5.4-.31C131.91,418.44,130.53,416.54,129.41,415.29Z" fill="#fd4f00"/>
    <path d="M138.13,401.85a13.25,13.25,0,0,0-6.2-5.52c-2.35-1.05-4.4,2.42-2,3.48a12.4,12.4,0,0,1,3.75,2.53c.5.5,3.19,3.39,2.25,4.29s-3.27-.24-4.12-.59c-1.81-.73-3.72-1.57-5.46-2.44-.23-.12-.56.13-.39.38,2.17,3.13,8.68,8.57,12.53,4.76C140.39,406.83,139.29,403.87,138.13,401.85Z" fill="#fd4f00"/>
  </g>
  <g id="ea17be2d-c1fc-4a03-ae01-904789f90b2c" data-name="Layer 5">
    <path d="M135.32,409.4c4.6.41,8.14,2.85,7.91,5.46s-4.15,4.38-8.75,4,4-2.11,4.24-4.72S130.72,409,135.32,409.4Z" fill="#fff"/>
    <path d="M135.82,394.89c4.6.41,8.14,2.86,7.9,5.46s-4.15,4.38-8.74,4,4.82-1.25,5.05-3.85S131.22,394.48,135.82,394.89Z" fill="#fff"/>
    <path d="M137.47,310.34c-6.6,2.59-14.8,2.19-20.53-2.21a13.36,13.36,0,0,1-4.92-7.08,82,82,0,0,0,19-12.56c15.75-13.73,34.15-33.93,29.06-56.54a3.89,3.89,0,0,0-5.67-2.3,129.52,129.52,0,0,0-30.29,26.06c-8.1,9.61-16.56,21.2-19.67,33.57a28.24,28.24,0,0,0-.88,6.75c-5.26,1.5-10.84,1.67-15.67-1.31a16.69,16.69,0,0,1-7-9,199.33,199.33,0,0,0,43.37-39.27,184,184,0,0,0,17.34-24.61c4.1-7.11-3.85-13.69-10.66-14.23-9.83-.79-16.73,8.2-22.68,14.63-7.93,8.57-16.3,16.89-23.65,26-7.6,9.36-14,22.47-12.51,34.57-6.7,4.64-15.43,10.14-22.53,7.86-10.26-3.31-4.67-18.74-2.62-25.73,2.89-9.85,6.11-19.6,9.85-29.16,7.52-19.25,17.43-37.65,31.17-53.21,14.2-16.09,32.55-28.57,53.14-34.86a.28.28,0,0,0-.15-.54c-41.28,6-70.3,41.14-86.62,77.11A285.67,285.67,0,0,0,42.8,254.66c-2.86,8.88-6.92,18.81-6.09,28.34.7,8.14,6.28,14.78,14.75,15.28,8.09.47,15.83-3.78,22.69-8.14a26.56,26.56,0,0,0,4.72,7.14c7.35,8,16.64,9,25.79,6.46A22.08,22.08,0,0,0,114.4,316c8,4.92,18.64,5.43,25.35-1.76C141.21,312.69,139.78,309.43,137.47,310.34ZM99.56,242.75c6.11-6.65,12.18-13.35,18.34-19.95,2.66-2.85,5.55-6.08,9.37-7.3,3-1,6.59-.25,7.91,2.56A196.6,196.6,0,0,1,99.44,261.7a199.19,199.19,0,0,1-19.8,15.91C79.8,263.51,90.61,252.49,99.56,242.75Zm53.68-3.11c.07,12.35-8.39,23.42-16.53,32.23-7.16,7.76-15.31,15.78-24.87,20.77a41.45,41.45,0,0,1,4.21-11.29A118.16,118.16,0,0,1,153.24,239.64Z" fill="#dedfe1"/>
  </g>
</svg>
