<svg xmlns="http://www.w3.org/2000/svg" viewBox="0 0 800 800">
  <title>http-illustration-400</title>
  <g id="c7fb0e40-2717-4fc8-8977-ea2939c66a45" data-name="Layer 6">
    <path d="M345,101.68A30.28,30.28,0,0,1,346.59,71c7.79-11.45,22.76-16.42,30.41-28,5.45,11.34-1.27,24.81-9.58,34.26S348.67,95.14,345,107.16" fill="#fd4f00"/>
    <path d="M366.16,103.81c4-15.08,20.27-25.8,35.72-23.58,6.72,1,12.94,4,19.39,6.17s13.69,3.33,19.91.6a85.06,85.06,0,0,1-51.26,15.71c-7-.19-14-1.25-21-1.27-.74,0-1.66.14-1.88.85s1.31,1,1.08.31" fill="#fd4f00"/>
    <path d="M518.16,703.71c-4.93-6.15-12.93-7.17-20.26-5.85-8.87,1.59-17.12,6.39-25.3,10a70.3,70.3,0,0,1-13.75,4.74,43.72,43.72,0,0,1-7.17.59c0-.21,0-.41-.08-.63-3-16.75-15.42-28.6-22.18-43.61.82-5-1.16-8.67-3-13.72-2.09-5.83.07-13.22,1.28-19.1a286.12,286.12,0,0,1,10.54-37c4.17-11.79,10.74-23,14.23-34.93,2.83-9.67,2.66-22.1-4.66-29.88-1-1.07-2.59-1.9-3.75-2.92.11-.86.23-1.72.34-2.6,1-7.63,2.26-15.56,1.52-23.25a201.37,201.37,0,0,0,1.34-33.3A207.78,207.78,0,0,0,434,407.38a1.8,1.8,0,0,1-.08-.21,26.34,26.34,0,0,0-.6-4.45c-1-4.53-3.57-8.86-6-12.8-1.18-1.93-2.42-4-3.77-5.88-1.87-3.61-3.83-7.17-5.91-10.66l-.79-1.28a45.12,45.12,0,0,0,15.52,3.64,40.12,40.12,0,0,0,9.16-.67c7.79,1,17.33,1.5,23.15-3.54,13.48-4.37,19.92-21.79,5.59-31.13-10.87-7.09-24.53-8.36-35.79-14.73-.35-.32-.71-.62-1.05-.94a23.36,23.36,0,0,0-4.4-3.18,56.14,56.14,0,0,1-7.41-10.14c-4.15-6.64-5.07-14.29-7-21.76a95,95,0,0,0-18.19-36,100,100,0,0,0-30.74-25.09c-2.91-1.57-5.91-2.9-8.84-4.41-3.68-1.9-5.34-2.73-1.46-5.58a23.92,23.92,0,0,1,19-4c8.43,1.86,15,7.81,23.8,8.94,7.85,1,15.49-1.19,22.43-4.81,16.08-8.37,25.16-24.72,32.57-40.49,2-4.34-1.29-8.48-5.93-7.71-5.68.94-11.42,1.63-17.15,2.26-1.85.21-6.07,1.39-7.8.54-2.39-1.17-2.88-5.14-3.62-7.4a152.23,152.23,0,0,0-9.25-23.33c-7.19-13.84-18.68-27.21-34.05-31.9-16.47-5-34.65.71-47.1,12.08-13.81,12.6-19.57,31.77-20.2,50v.32a44.37,44.37,0,0,0,.59,15,139.81,139.81,0,0,0,14.22,47.63,29.59,29.59,0,0,0-10.65,18.1A30.75,30.75,0,0,0,316.42,275c4.76,7.7,10.68,13.55,13.35,22.51,5.24,17.62,2,37.67-1.19,55.39A343,343,0,0,1,313.53,408c-3,8.34-6,16.62-9.52,24.75A117.06,117.06,0,0,0,272.81,447C252,460.69,238.43,480.67,233.45,504a45.71,45.71,0,0,1-5.76,7L221.52,515a10.83,10.83,0,0,1-6.52.36c-12-3.06-15.93-17.91-18.29-28.36-5.05-22.33-4.08-47.18,8.08-67.16,12-19.74,32.81-32.09,50.36-46.31,17-13.79,30.65-30.64,39.43-50.79,8.65-19.85,13.68-42.77,11.26-64.5a156.34,156.34,0,0,0-2.64-16.07c-.5-10.49-3.9-21-8.15-30.92A120.43,120.43,0,0,0,264.2,168.2c-17.26-15.18-39.73-24.1-62.71-26a125.88,125.88,0,0,0-20.5-3c-24.83-1.56-51.29,4.39-70.44,20.94a90.73,90.73,0,0,0-24.38,35.17,89.12,89.12,0,0,0-6.59,62.13,29,29,0,0,0,2.52,8.44c.05.14.09.28.14.43,4.45,12.61,12.48,22.54,18.8,34.08,3,5.53,10.28,1.43,9.46-4-.88-5.83-.27-11.53,4.52-15.61a15.08,15.08,0,0,1,17.17-1.39c.46.26.9.55,1.33.84A27.57,27.57,0,0,1,136,292.31c-1.44,6-4.74,11.6-7.73,16.8a379.68,379.68,0,0,0-19.6,38.19c-4,9.07-7.48,18.35-10.51,27.78a301,301,0,0,0-10,33.73q-1.61,6.92-2.89,13.9c-7.36,26.93-10.34,54.87-2.66,81.83a119,119,0,0,0,6.82,18.19c.24.53.49,1,.75,1.58s.51,1,.77,1.53.58,1.15.89,1.71a92.9,92.9,0,0,0,20.48,26.37c17.49,15.32,39.71,20.87,62.46,22.21,22.13,1.31,49-4.22,61.27-24.38-2.16,13.16,3.79,27.31,11.69,37.69,1.2,5.51,2.53,11,4.05,16.45-2.32,17.86-15.38,36-18.94,52.91-2.68,12.76,8.71,20.45,16.53,28.71,5.22,5.5,10.36,11.07,15.54,16.61,4.4,4.71,11.62,11,10.35,18.22-.39,2.24.24,4.79,2.42,5.94,9.36,5,18.25,2.36,27-1.47,7.07-2,14.1-5.42,19.4-7.88,4.83-.91,9.16-.07,13.78,3.53,6.13,4.78,11.43,11.6,20,11.56,8.27,0,14.42-6.62,15.63-14.46,1.41-9.2-3.61-17.38-11.49-21.95-18.13-10.5-39.42,4.65-55.82,11.39-2.77,1.14-10.87,5.07-13.83,3.66-1-.5-1.77-4.18-2.09-5.16q-1.53-4.71-3.05-9.44c-3.86-12-8.27-23.75-12.58-35.56,12.36-6.55,25.7-11.38,38.92-15.85,6.8-2.3,13.65-4.45,20.56-6.38,3.83-1.07,9-3,12.4.13,2.14,2,3,5.35,3.88,8,3.43,10.28,8,20.82,14.82,29.39a63.64,63.64,0,0,0,9.2,12,18.11,18.11,0,0,0,14.95,5.56c2.67,1.3,5.32,2.51,7.86,3.65a6.72,6.72,0,0,0,2.93.6c.57.34,1.14.67,1.7,1a8.54,8.54,0,0,0,1.35.68,194.35,194.35,0,0,1,22.74,16c.4.49.81,1,1.21,1.46,5.27,6.58,10.14,6.75,18.22,6.31.88,0,1.75-.1,2.63-.15,5.48,1.63,12,.47,17.37-1l10.1-.63c4.6-.29,9.81-1.17,14.3.1,3.64,1,6.66,3.57,10.24,4.81,6.56,2.27,14.53.5,18.92-5.09S522.47,709.09,518.16,703.71Z" fill="#fd4f00"/>
    <path d="M378.46,154.68a63.17,63.17,0,0,1-.25-8.59c.15-4.18-6.07-4.06-6.42,0-.5,5.85-.94,13.33,1.63,18.76,1.47,3.12,6.11,1.4,6.18-1.67C379.66,160.32,378.75,157.52,378.46,154.68Z" fill="#fff"/>
    <path d="M396.68,155.84q-1-5.79-2.09-11.56c-.49-2.71-5-2.12-4.83.65l.9,11.72c.27,3.59.08,7.5,1.36,10.88a3.12,3.12,0,0,0,6.1-.83C398.51,163.14,397.32,159.35,396.68,155.84Z" fill="#fff"/>
    <path d="M437.85,315.54c-.52-2-3.62-2.07-4.09,0-.15.62-.3,1.24-.44,1.86a2.39,2.39,0,0,0-.73.4l-.24.2c-.08-.17-.16-.34-.25-.51-.84-1.61-3.08-1.09-3.67.4l.12-.49,1.25-2.14a1.89,1.89,0,0,0-1.39-2.89,1.72,1.72,0,0,0-.52-.27,1.33,1.33,0,0,0-.13-.52,3.94,3.94,0,0,0-1.4-1.55,2.46,2.46,0,0,0-2.54,0,71.59,71.59,0,0,0-24.18,21.39,2.37,2.37,0,0,0,1.4,3.45c4.64,1.13,8.14-.92,11.64-3.88,2.68-2.28,5.29-4.66,7.89-7.06-3.39,6.45-6.62,13-9.59,19.61a2.13,2.13,0,0,0,3.33,2.58,51.91,51.91,0,0,0,15.46-19.94l.35-.35c-.27,6.37-4.53,13.49-3.81,19.76.22,2,2.69,3.57,4.29,1.78C438.49,338.51,440.87,326.94,437.85,315.54Zm-5.37,17a1.37,1.37,0,0,0,.51-.19,35,35,0,0,1-1.28,3.55C431.94,334.81,432.21,333.69,432.48,332.57Z" fill="#fff"/>
    <path d="M454.28,309.28A144,144,0,0,1,421,293c-8.13-5.35-16.28-15.12-26.63-15.5-2.09-.08-2,3,0,3.21,8.69.8,15.93,10.32,22.58,15.37l.22.17a2.32,2.32,0,0,0-.93,1.63l-.47-.24-.36-.26a1.85,1.85,0,0,0-2.58.33,1.73,1.73,0,0,0-.26.28c-1.42-.55-2.24,1.44-1.38,2.39,2.79,3.08,5.47,6.18,8.18,9.2a3.17,3.17,0,0,0-.92,5.69c6.15,4.37,11.84,9.29,17.72,14a75.26,75.26,0,0,0,7.92,5.29A37.06,37.06,0,0,0,448,337a10.22,10.22,0,0,0,.87.92l-.21.28c-6.46,4.93-1.11,14.74,6.47,11.06,9.08-4.39,17.36-11.8,17.5-22.62C472.72,315.37,463.24,312.28,454.28,309.28Z" fill="#fd4f00"/>
    <path d="M378.71,213.67c-1.84-9.28-15.37-15.8-23.76-17-2.4-.34-5.08.56-5.7,3.24a7.27,7.27,0,0,0-.16,1.23,4.66,4.66,0,0,0,3.4,4.46A36.32,36.32,0,0,1,364,210.17c3.4,2.2,5.74,5.73,9.28,7.65a3.72,3.72,0,0,0,5.4-4.15Z" fill="#fff"/>
  </g>
  <g id="da2458c6-3090-4efb-bf31-89559847b9de" data-name="Layer 5">
    <g>
      <path d="M261.53,577l-11.4-30.48c17.09-30.76,27.63-66.93,27.63-124.46L326.46,446c0,40.16-12.25,63.8-25.92,88h36.17V425.5h50.7V534h19.37v43H387.41v45.56h-50.7V577Z" fill="#1d1d1b" stroke="#fff" stroke-linecap="round" stroke-linejoin="round" stroke-width="9"/>
      <path d="M500.19,422.08c47.84,0,82,35.32,82,101.39S548,626,500.19,626s-82-36.45-82-102.53S452.34,422.08,500.19,422.08Zm0,159.49c21.64,0,27.91-29.62,27.91-58.1s-6.27-57-27.91-57-27.92,28.48-27.92,57S478.54,581.57,500.19,581.57Z" fill="#1d1d1b" stroke="#fff" stroke-linecap="round" stroke-linejoin="round" stroke-width="9"/>
      <path d="M668.78,422.08c47.85,0,82,35.32,82,101.39S716.63,626,668.78,626s-82-36.45-82-102.53S620.94,422.08,668.78,422.08Zm0,159.49c21.65,0,27.91-29.62,27.91-58.1s-6.26-57-27.91-57-27.91,28.48-27.91,57S647.14,581.57,668.78,581.57Z" fill="#1d1d1b" stroke="#fff" stroke-linecap="round" stroke-linejoin="round" stroke-width="9"/>
    </g>
  </g>
</svg>
