<svg xmlns="http://www.w3.org/2000/svg" viewBox="0 0 800 800">
  <title>http-illustration-502</title>
  <g id="7da25a46-ac4e-4d8f-af32-011ca6676fca" data-name="Layer 3">
    <ellipse cx="289.59" cy="304.47" rx="78.27" ry="150.87" fill="#dedfe1"/>
  </g>
  <g id="580d2913-6b4f-4ddb-bd70-394f055f6b12" data-name="Layer 4">
    <path d="M215.54,304.15c0-98.18,30.21-170,69-171.73C248,62.85,231.61,121.28,169,121.28c-57.23,0-79.65,10.25-79.65,179.49S161,509.08,161,509.08c70.55,0,102.08,57.65,137.44-27.55a30.27,30.27,0,0,1-11.61,2.39C247.46,483.92,215.54,403.43,215.54,304.15Z" fill="#fff"/>
    <g>
      <path d="M64.78,605.09l55.79-29.36c2.61,18.27,12.07,30,29,30s26.42-14,26.42-32.3-9.46-32.3-26.42-32.3c-15.66,0-23.49,11.42-26.75,22.51L72,541.15,86,427H219.74v50.56H133.29l-1.63,13.38a230.16,230.16,0,0,1-4.89,24.79l.65.33c7.5-8.49,21.2-16.64,40.78-16.64,35.23,0,66.22,27.07,66.22,74.05,0,49.59-35.23,83.19-83.51,83.19C107.84,656.64,76.53,635.1,64.78,605.09Z" fill="#1d1d1b" stroke="#fff" stroke-linecap="round" stroke-linejoin="round" stroke-width="9"/>
      <path d="M336.52,423.06c54.81,0,94,40.45,94,116.14s-39.14,117.44-94,117.44-93.95-41.76-93.95-117.44S281.72,423.06,336.52,423.06Zm0,182.69c24.8,0,32-33.93,32-66.55s-7.17-65.25-32-65.25-32,32.63-32,65.25S311.73,605.75,336.52,605.75Z" fill="#1d1d1b" stroke="#fff" stroke-linecap="round" stroke-linejoin="round" stroke-width="9"/>
      <path d="M437.65,512.45a63.81,63.81,0,0,1-2.28-16.64c0-45.67,40.12-72.75,84.49-72.75,45.67,0,82.53,26.1,82.53,71.44,0,64.27-81.23,93.3-83.51,105.37v.66h81.55v52.19H443.2a94.37,94.37,0,0,1-1-13.05c0-73.07,100.47-97.86,100.47-141.9,0-14.36-8.81-23.82-23.16-23.82-17,0-26.75,14.36-26.75,36.54,0,12.72,2.94,20.88,4.24,27.08Z" fill="#1d1d1b" stroke="#fff" stroke-linecap="round" stroke-linejoin="round" stroke-width="9"/>
    </g>
  </g>
  <g id="14ff2a8f-16f2-4b8b-b972-2ae115a61f4c" data-name="Layer 6">
    <path d="M759.7,146.75c-5.06-15.69-14.18-30.15-27.15-40.49-12.1-9.64-30.21-15.93-44.47-7.3a2.35,2.35,0,0,0-1.06,2.62c5.42,14.94,1.68,31-7.1,43.93-9.11,13.37-24.73,22-40.26,25.56-16.39,3.73-33.33,2.58-49.48-1.87-2.64-.73-5.26-1.55-7.85-2.43a339,339,0,0,1-36-26.87c-7.07-9.52-14.43-18.85-22.33-27.69a231.35,231.35,0,0,0-26.74-25.73A138.68,138.68,0,0,0,465,67,170.06,170.06,0,0,0,441.2,58.7a136.43,136.43,0,0,0-40.84-5.38,124.63,124.63,0,0,0-16.3,1.25l-1.15.17c-.53.08-1.06.15-1.58.24a134.75,134.75,0,0,0-32.27,9.21c-1.64.65-3.27,1.38-4.9,2.17-6.48,3.14-13.42,6.58-19,11.37-7.47,5.47-14.27,12-19.15,19.78-6.44,10.28-9.15,22.24-10.72,34.14-2.81,21.32-.7,45-7.86,65.69l-1.93-.14a59.66,59.66,0,0,0-16.55.81,41.2,41.2,0,0,0-27.22,18.62c-5.66,9.18-7.74,20.36-10.2,30.69-3.93,16.54-7,33.09-8.06,49.94-.5,2.1-.93,4.24-1.27,6.41l0,.07h0c-.11.71-.21,1.43-.31,2.15a6.17,6.17,0,0,0,1.14,4.49c0,1,0,2.08,0,3.12.29,21.83,3,45.12,10.21,65.84,4.88,14.06,14.48,25.27,29.66,28.26,2.3.45,4.62.82,7,1.15,2.66,1.16,5.39,2.18,8.17,3.08a89.64,89.64,0,0,0,26.45,3.85c7.52,0,17.85,1.09,24.32-3.37a84.35,84.35,0,0,0,33,2.87c.47,0,.93.07,1.4.08a76.82,76.82,0,0,0,12.75-.68A94.72,94.72,0,0,0,392,421.75c16,11.06,37.31,10.47,56.14,6.68,5.4-1.09,10.95-2.23,15.95-4.63s9-6.12,12.65-10.08c6.47-7,13-14.48,16.79-23.29,3.29,3.09,6.56,6.21,9.83,9.32,1.18,1.41,2.39,2.8,3.65,4.15a124.83,124.83,0,0,0,12.53,11.25l1.58,1.51c6.73,6.4,14.92,15.64,24.4,18.27A132.16,132.16,0,0,0,537,487.66c.56,15.31,2.76,39.25,22.18,41.3a18.3,18.3,0,0,0,18.32-10.16c3.52-7.13,1.34-14.63-3.66-20.39s-11.49-9.33-13.32-17.08c-2.13-9.06-.44-19.2.79-28.26,1.44-10.62,4.68-20.71,6.72-31.14a1.19,1.19,0,0,1,.08-.16c3.3-7.82.73-18.87-7.49-22.86-.51-.27-1-.55-1.5-.83l-.19-.18c-1.2-1.12-2.47-2.17-3.67-3.29q-3.6-3.33-7-6.92t-6.43-7.34c-1.41-1.72-3.21-2.91-4.69-4.45.53.5,0-.43-.49-1.15-3.81-5.33-7.31-10.87-10.86-16.37-4-6.2-5.88-13.18-12.39-17.47-6.36-4.2-14.58-4.28-21.95-4.67-1.78-.09-3.56-.16-5.34-.2q-8.73-5.62-18-10.44-2.24-1.16-4.48-2.25a318.92,318.92,0,0,0,7.88-34.43c24.83,15.23,56.14,15.79,84.47,12.42a4.47,4.47,0,0,0,4,.06,9.94,9.94,0,0,0,1.82-1.16c2.09,4.31,6.64,8.56,9.12,11.67,4.27,5.38,8.62,10.71,13.12,15.9,7.24,8.36,19.77,21.21,31.88,14.73,9.52-5.1,16.71-21.56,8.62-30.57-4.88-5.44-10.33-4.13-16.67-2.8a13.3,13.3,0,0,1-6.15-.09,33,33,0,0,1-6.86-6.5,183.29,183.29,0,0,0,27.33.67,13.46,13.46,0,0,0,7.92-.22l1.2-.46a167,167,0,0,0,43.91-10.48c29.38-11.49,56-31,73-57.89C764.58,208.27,769.15,176.07,759.7,146.75ZM438.45,233.82c-2.79,3.32-5.28,6.77-8,10-6.13,4.63-14.25,3.07-22.07.11-6.17-6.13-12.88-11.31-19.79-16.67-3.92-3-7.16-6.63-10.8-10a55.15,55.15,0,0,0-11.69-7.68c-15.28-8.15-29.58-19.12-47.85-17.09a56,56,0,0,0-5.91,1c5.76-11.87,12.32-23.63,20.2-34.13,4.5-6,10.17-11,17.81-12.33a33.84,33.84,0,0,1,15.48,1.28,61.15,61.15,0,0,1,24.31,15.87c7.47,7.95,13.8,16.32,22.22,23.18,8.73,15.2,22.2,26.79,35.9,37.38l1.69,1.3A24.49,24.49,0,0,0,438.45,233.82Z" fill="#fd4f00"/>
    <path d="M324.11,185.81c-.9-.61-2,.21-2.28,1.14a.24.24,0,0,0,.46.13c.29-.69,1-.81,1.7-.83A.24.24,0,0,0,324.11,185.81Z" fill="#fd4f00"/>
  </g>
  <g id="d5d508a2-8989-4c90-b70c-eab25dc69f56" data-name="Layer 5">
    <path d="M663.55,441c-4-14.06-12.16-30.06-25.17-37.49-.2-.11-.45.12-.32.32C642,410,646.5,415.88,650,422.36a86,86,0,0,1,7.63,20.23A81,81,0,0,1,660,463.91c-.16,7.42-2.36,14.64-2.12,22a2.17,2.17,0,0,0,4,1.09c4.43-6.39,4.82-14.77,4.86-22.37A86.3,86.3,0,0,0,663.55,441Z" fill="#dedfe1"/>
    <path d="M698.28,455.38a182.75,182.75,0,0,0-3.62-27.45,176.39,176.39,0,0,0-8.06-27.28,125.88,125.88,0,0,0-5.43-12c-.84-1.65-1.62-3.78-2.86-5.17-1.09-1.22-2.82-1.89-4-3.19a.1.1,0,0,0-.16.09c.43,1.84-.06,3.58.27,5.35.4,2.14,1.87,4.51,2.64,6.56,1.47,3.86,2.85,7.78,4.16,11.7a175.78,175.78,0,0,1,6.53,25.86,170.35,170.35,0,0,1,2.45,27.33c0,4.16-.2,8.3-.32,12.45-.11,3.73-.58,6.83,2.62,9.17a2.37,2.37,0,0,0,2.41,0c3.46-1.73,3.35-5.69,3.55-9.17A125.13,125.13,0,0,0,698.28,455.38Z" fill="#dedfe1"/>
    <path d="M755.28,286.2c-1.67,2.16-3.84,3.55-5.52,5.8-2,2.73-4.28,5.28-6.5,7.87A172.74,172.74,0,0,1,729.89,314c-9.57,9-20.53,15.3-31.55,22.21-3.39,2.12-1.25,8.26,2.86,6.76,12.72-4.63,24.08-13.49,33.6-23a110.38,110.38,0,0,0,12.51-15,84.37,84.37,0,0,0,5.49-9.37,27.8,27.8,0,0,0,2.08-4.2c.5-1.64.32-3.25.91-5C755.91,286.09,755.45,286,755.28,286.2Z" fill="#dedfe1"/>
    <path d="M751.59,331.58c-4.93,4.32-7.89,11.44-12.1,16.53a84.58,84.58,0,0,1-15.78,14.69c-2.6,1.87-.2,6.19,2.56,4.37A89.19,89.19,0,0,0,744.2,351.7c4.43-5.05,10.19-11.78,10.83-18.69C755.21,331.13,752.78,330.54,751.59,331.58Z" fill="#dedfe1"/>
  </g>
</svg>
