<svg xmlns="http://www.w3.org/2000/svg" viewBox="0 0 800 800">
  <title>http-illustration-503</title>
  <g id="203d47d0-79b8-4d34-91be-d803ab82f4c1" data-name="Layer 2">
    <g>
      <path d="M40.76,388.38,86,364.57c2.12,14.82,9.79,24.34,23.54,24.34S131,377.53,131,362.72s-7.67-26.18-21.43-26.18c-12.69,0-19,9.25-21.69,18.25L46.58,336.54,58,244H166.4v41H96.31L95,295.8a187.91,187.91,0,0,1-4,20.11l.53.26c6.08-6.88,17.19-13.49,33.06-13.49,28.56,0,53.69,21.95,53.69,60,0,40.21-28.56,67.45-67.71,67.45C75.68,430.17,50.29,412.71,40.76,388.38Z" fill="#1d1d1b"/>
      <path d="M261.09,240.79c44.43,0,76.17,32.8,76.17,94.16s-31.74,95.22-76.17,95.22S184.91,396.31,184.91,335,216.65,240.79,261.09,240.79Zm0,148.12c20.1,0,25.92-27.51,25.92-54s-5.82-52.9-25.92-52.9S235.17,308.5,235.17,335,241,388.91,261.09,388.91Z" fill="#1d1d1b"/>
      <path d="M337,388.38l45.23-23.81c2.38,15.87,10.58,24.34,24.33,24.34s20.9-9.52,20.9-22.22-9-21.69-22.75-21.69c-11.64,0-19.31,4.5-27.51,9.26l-16.4-39.41L401.27,285H344.93V244H469.78v33.86l-32,22.22c-9.52,7.14-27,14.54-27,14.54l.53,1.06a67.29,67.29,0,0,1,7.67-.53c30.68,0,55.81,19.31,55.81,54.22s-29.09,60.84-67.18,60.84C372.71,430.17,346.52,412.71,337,388.38Z" fill="#1d1d1b"/>
    </g>
  </g>
  <g id="fa89afb2-a208-4033-a351-4d3d802c58ac" data-name="Layer 6">
    <path d="M536.28,130c-1.82,1.11-3.69,2.15-5.59,3.17a3.24,3.24,0,0,0-3.35,1.75c-10.75,5.53-22,10.59-29.68,20.13-5.48,6.8-11.36,20.72-5.22,28.19.07.39.16.79.26,1.19a4.16,4.16,0,0,0,6.18,2.41,3.19,3.19,0,0,0,2.22-2.42c6.46-9,17.69-13.18,25.77-20.52a44.25,44.25,0,0,0,14.38-31.05A3.32,3.32,0,0,0,536.28,130Zm-29.41,37.33a3.16,3.16,0,0,0,.69-.43l1.37-1.22a3.54,3.54,0,0,0,.52.25q-2,1.34-4,2.75Z" fill="#fd4f00"/>
    <path d="M577.68,133.89c-4.52,3.44-10.1,3.62-15.36,5.22a47.7,47.7,0,0,0-13.8,7,93,93,0,0,0-20.77,21c-2.47,1.79-1.23,6.57,2.12,6.28,11-1,22.59-3,32-9,9.05-5.83,17.46-17,19.49-27.64C581.74,134.85,579.61,132.42,577.68,133.89Z" fill="#fd4f00"/>
    <path d="M753.52,479.84c-5.78-2.22-11.84.44-17,2.92-7.22,3.43-14.28,7.21-21.41,10.83-1.64.84-3.33,1.64-4.95,2.52a14,14,0,0,0-1.18-1,5.29,5.29,0,0,0-.67-3.34c-7.5-13.48-15-26.94-22.46-40.47-3.29-6-6.11-13.56-11-18.46-4.57-4.56-11-4.67-17.07-4.59a178.34,178.34,0,0,0-41.71,5.6q-7.46-10.39-15.77-20.08a239.11,239.11,0,0,0-41.86-38.35c-3.85-2.76-8.08-5.52-12.27-8.45a62.76,62.76,0,0,0,4.81-6.9,306.39,306.39,0,0,0,16.61-30.47c.39-.82.85-1.75,1.35-2.75a32.12,32.12,0,0,0,11.31-2.91c2.16-1.13,2.57-3.92,1.55-5.92-1.09-2.18-1.46-4.58-2.49-6.78.6-.49,1.19-1,1.79-1.47,1.8-1.43,1-4.29-.69-5.35-2.7-1.72-7.72-3.38-11.1-2,0-.12,0-.24,0-.37.62-5.56-7.44-5.94-9.13-1.2l-.11-.05c-.91,4.1-1.53,8.16-2.78,12.19-.41,1.29-.94,2.6-1.34,3.91-5.22,6.12-10.56,12.12-16.18,17.9-.59.61-1.89,2.5-2.68,2.73-1.68.47-2.26-.64-3.45-1.67L527,330.14c-2.14-1.87-4.34-3.61-6.58-5.3-.27-6.58-.19-13.22-1.45-19.63-1.56-7.92-5-17.87-10.88-24.34a73.19,73.19,0,0,1,.65-11.73c.38-2.47.88-4.92,1.44-7.35,8.68-1.85,16.13-8.11,25-8.23,5.8-.08,11.07,2.91,17,2.35a33.24,33.24,0,0,0,14.08-5c8.93-5.52,16.11-14,22.46-22.26,6.54-8.49,12.08-18.26,11.35-29.31-.22-3.33-4.29-5.45-6.83-2.83-6.22,6.39-13.88,5.19-19.82-.62s-10.76-11.13-18.4-14.62c-14.53-6.64-30.43-5.45-44.33,2.11A47.81,47.81,0,0,0,491,204.08c-1.26-5.81-5.35-10-8.14-15.25a15.72,15.72,0,0,1-1.61-11c.44-2.22,2.21-5,1.34-7.28a2.88,2.88,0,0,0-3.48-2l-.42.13a2.58,2.58,0,0,0-1.87,2.46v.05A20.75,20.75,0,0,1,475,173.6a5.79,5.79,0,0,0-2.32-3.74.37.37,0,0,0-.42.06c-2.12,1.65-3.25,5.14-3.75,8.86a.59.59,0,0,0,0-.13c-.72-3.27-5.57-1.86-5,1.37.7,3.85.81,8.74,3.18,12a26.81,26.81,0,0,0,5,4.77,12.92,12.92,0,0,0,1.54,1.93c.78,2.28,1.54,4.59,2.22,6.91a22.45,22.45,0,0,0-7.05.13c-8.74,1.31-17.47,2.67-26.21,4-8.56,1.3-17.86,1.74-26.21,4-4.67,1.26-7.21,5.65-7.27,10.21A8.43,8.43,0,0,0,407,227.1a4.63,4.63,0,0,0-.29,3.33c0,.12,0,.23,0,.35.86,7.32,4.86,15.62,7.9,22.27a90.58,90.58,0,0,0,12.68,20.52,110.73,110.73,0,0,0,17.28,16.87c2.83,2.22,6.35,5.39,10.12,7.7-12.08,17.58-15.54,41.39-9.06,61.53,5.11,15.86,14.82,29.45,24.21,43,4.91,7.07,10.18,14.23,13.71,22.12,4.11,9.2,3.3,17.63.12,27-3.09,9-6.91,18-8.88,27.38a99.83,99.83,0,0,0-1.95,28.74,83.75,83.75,0,0,0,5.92,24.71,21.28,21.28,0,0,1-3.4.18c-8.59-.23-16.56-4.85-23-10.29-13-11.06-22.23-25.85-35.47-36.83-25.15-20.88-57.24-33.56-90.17-32.35a125.58,125.58,0,0,0-47.74,11.36c-15.61,7.14-27.93,17.89-39.89,30-11,11.09-27.72,26.52-44.62,18.2-15.71-7.74-19.12-27.86-21.63-43.33a17.64,17.64,0,0,0-.88-3.38c1-1.06,1.38-2.95-.29-3.67a21.33,21.33,0,0,0-4.05-1.28c-2.45-1.1-5.64-1.06-9.53-.28a49.3,49.3,0,0,0-20,9.39A60.06,60.06,0,0,0,123,487.4a92.62,92.62,0,0,0-17.54,51.21c-1.18,38.39,23.57,74,60,86.27,9.63,3.23,20.12,4.68,30.07,2.47,15.26.68,30-1.82,43.89-9.08,32.38-17,50.17-50.21,73.38-76.85,11.61-13.33,26.54-25.56,42.94-31.59a83.63,83.63,0,0,1,15.68,1.73,111.8,111.8,0,0,1,25.86,9c4.13,2,8,4.57,12,6.84,8.27,8,16.93,15.74,27.57,20.36a62.24,62.24,0,0,0,30.06,4.67,52.41,52.41,0,0,0,17.61-1.53c1.32-.34,2.6-.76,3.87-1.2l.13.18c17.94,24.34,50.79,42.37,81.62,34.56,18-4.57,32.15-18.49,44.74-31.38,10.81-11.06,22-24.58,35.89-32.35a7,7,0,0,0,5.8-2.82l.82-.35a109.28,109.28,0,0,1,8.89,14.25,95.46,95.46,0,0,1,5.84,13.88c1.29,4.09,1.34,10.23,4.81,13a4.46,4.46,0,0,0,.76.49,18.21,18.21,0,0,0,1,2.26,5.6,5.6,0,0,0,4.33,3.26c4.74,4,11.31,4.74,17.37,4.18,4.07-.38,8.11-1.08,12.15-1.64,4.3-.59,9.29-.58,13.43-1.84,2.8-.85,2.5-1.6,2.9,1.19a14.37,14.37,0,0,0,.81,3.5,10,10,0,0,0,19.21-3c.66-6.95-5.63-11.67-11.68-13.14-8-1.94-16.59-2.06-24.73-1.55a87.77,87.77,0,0,1-11.8.32,24.93,24.93,0,0,1-7.35-2c1-8-1.3-17.21-2.77-25a218,218,0,0,0-7.11-27.78c-1.74-5.3-3.65-10.52-5.82-15.64,1.41,1.67,2.82,3.35,4.26,5,4.17,4.77,8.64,9.28,13.17,13.71,4,3.95,8,8.29,14.19,6.51,5.57-1.61,10.89-5.72,15.9-8.56,3.31-1.87,6.59-3.79,9.89-5.69,6.19-.07,10.86,5.82,17.42,5.37,4.52-.31,8.36-3.53,8.55-8.21S757.65,481.44,753.52,479.84ZM578.71,209c.33.06.66.11,1,.15-.51.52-1,1.06-1.48,1.62A4.9,4.9,0,0,0,578.71,209Zm-93.94,13.08c-1.82,8.72-2.38,17.51-3,26.37-.35,5.19-.86,10.35-1.4,15.51-13.11-11.13-29.06-18.74-42.93-28.83-.36-.27-.73-.51-1.09-.77,9.74-4.6,19.56-9,29.55-13.07,2.86-1.17,8.18-2.37,11.52-4.8,2.16,1.75,4.73,3,7.39,2.44a5.56,5.56,0,0,0,.7-.19C485.27,219.88,485,221,484.77,222.12ZM187,602.24l.35-.29a6.77,6.77,0,0,0,.78,0C187.58,602.87,187.19,602.7,187,602.24Zm454.78-86c.54-.56,1.07-1.13,1.59-1.7.08.19.16.37.23.56Zm16.59-58.6a4.86,4.86,0,0,0-.53-.31c-.13-.4-.26-.81-.38-1.21a4.64,4.64,0,0,1,1,.05,6.43,6.43,0,0,0-.08,1.09C658.34,457.4,658.35,457.52,658.35,457.65ZM685.71,476a6,6,0,0,0,1-.19l1.77,3.13C687.57,478,686.65,477,685.71,476Z" fill="#fd4f00"/>
  </g>
  <g id="7befa9a1-239e-47fc-ad30-22fc88fc1d74" data-name="Layer 5">
    <path d="M560,207.48c2.88,3.4,3.65,7.47,1.72,9.1s-5.81.19-8.69-3.2,1.56-1.32,3.49-2.95S557.15,204.08,560,207.48Z" fill="#fff"/>
    <path d="M570.19,197.87c2.88,3.4,3.65,7.47,1.72,9.1s-5.81.2-8.69-3.2,1.56-1.32,3.49-3S567.32,194.47,570.19,197.87Z" fill="#fff"/>
    <path d="M591.55,289.77H637s10.7,51.39,0,57.66-39.36,10.26-49.1,2.47S591.55,289.77,591.55,289.77Z" fill="#fc5211"/>
    <ellipse cx="585.31" cy="316.84" rx="13.41" ry="20.48" fill="none" stroke="#fc5211" stroke-miterlimit="10" stroke-width="5"/>
    <path d="M618.24,251.36s-5.73,3.79-5.73,8.92,5.44,7.38,5.73,9.26-3.73,10.13-3.73,10.13" fill="none" stroke="#dedfe1" stroke-miterlimit="10" stroke-width="3"/>
  </g>
</svg>
