<svg xmlns="http://www.w3.org/2000/svg" viewBox="0 0 800 800">
  <title>http-illustration-401</title>
  <g id="2e8a7070-b3b2-477a-a7a3-ee9b40d036a0" data-name="Layer 3">
    <ellipse cx="268.17" cy="353.27" rx="139.54" ry="288.34" fill="#dedfe1"/>
  </g>
  <g id="a17edf32-5dea-4d53-9b46-fc476aafbef0" data-name="Layer 6">
    <path d="M419.22,183.76c-.81-.56-1.62-1.09-2.44-1.61,1.13-6.18-1.34-13.31-3-19.25a143.31,143.31,0,0,0-7.46-20.19,148.91,148.91,0,0,0-23-35.82c-3.31-3.83-10.6.23-8.72,5.08a80.36,80.36,0,0,1,5.19,28.87c.09,8.38.86,16.17,4.38,23.86,5.46,11.93,18.92,26.51,33.36,25.51A3.49,3.49,0,0,0,419.22,183.76Z" fill="#fd4f00"/>
    <path d="M391,188c-4.56-11.61-16.81-19-27.26-24.81a399.34,399.34,0,0,0-39.6-18.82c-5.91-2.46-9.28,5.09-7.33,9.54,6.7,15.31,12.09,33.52,25.72,44.33,15.54,12.35,31.34,2.5,48.4.74C397.79,198.27,398.12,188.22,391,188Z" fill="#fd4f00"/>
    <path d="M553.71,454.52A143.53,143.53,0,0,0,539,476.93l-.16.29c0-.54,0-1.07,0-1.61,0-4.19.11-8.48.08-12.75,1.48-4.92,2.93-9.87,3.9-14.86,1.63-8.35-10.15-11.74-12.81-3.54-2.52,7.77-3.93,16-5.79,24-.15.64-.32,1.29-.49,1.95-1.2-3-2.38-5.92-3.57-8.89-2.24-5.56-3.82-12.59-8.47-16.62a5.51,5.51,0,0,0-9.28,3.85c-.4,4.43,1.55,8.14,3.19,12.17l5.91,14.54q1.8,4.45,3.57,8.93l-.1-.08c-1.82-1.4-3.66-2.76-5.54-4.08-.82-.58-1.65-1.14-2.49-1.67a10.15,10.15,0,0,0-2.55-3,10.09,10.09,0,0,0-16.07,6.14c-9.77-3.34-19.5-6.83-29.26-9.91-3.92-1.24-8.29-2-11.95-3.95s-5.81-5.32-8-8.63c-4.61-6.91-8.76-14.14-12.76-21.43-3.16-5.77-6.16-11.62-9.13-17.49-2.92-8.78-5.38-17.74-8.45-26.44-4.38-12.43-9.83-25.79-19.49-35.14-5.45-5.27-12.56-8.86-19.8-9.26-.46-.54-.93-1.06-1.39-1.59-.15-.38-.32-.75-.47-1.14a44.84,44.84,0,0,1-2.9-13.93,34,34,0,0,1,2.13-9.62c11.26,9.47,24.67,17.32,39.65,16,4.46-.39,8.27-2,12.33.41s7.73,5.86,12.07,8.19A71.29,71.29,0,0,0,455,355.57c35,4.77,68.19-18.42,76-52.85,1.13-5-3-8.45-7.71-7.71-9.59,1.48-21.93,2.91-30.11-3.57-7.57-6-9.34-16.76-11-25.65-3.8-20.27-10.44-39.08-26.89-52.65-16-13.17-38.07-18.61-58.11-12.66-20.42,6.05-35.05,22.59-47.48,39a357.08,357.08,0,0,0-39.57,66.1l-9.6,3.7c-19-.85-37.72,3.21-56.93,4.87-11.9,1-23.56.76-35.12-2.47s-22.21-9.21-34.34-10.15c-23-1.79-39.09,19.57-43,39.89-4.44,22.81-2.36,46.91-3.73,70-1.07,18.23-3.78,35.6-10.16,52-3.33,6.79-6.7,13.57-10.21,20.28-4.31,8.24,6.94,14.43,12.25,7.16A92.46,92.46,0,0,0,129.41,473Q128.69,486,128,499c-.42,7.52,10.82,8.66,12.85,1.74a76.93,76.93,0,0,0,2.72-29.5,61.42,61.42,0,0,1,5.17,31.06,5.88,5.88,0,0,0,3.24,5.64c10.76,29.21,22.48,59.18,41.29,84.15,15.5,20.58,38.47,37.47,63.6,44.46l.58.3c4.69,2.6,9.15,3.92,14.4,3.33l.29,0c5.07.8,11.14,1.76,15.83-1,4.28-2.5,8.74-4.43,13.21-6.67,17.44-8.73,34.16-22,47.63-36.06s23.67-31,31.08-48.87c.58-1.4,1.12-2.8,1.65-4.21a172.28,172.28,0,0,0,20.62-50.24c4.66,1,9.6,1.29,14.11,1.87,8.23,1,16.46,1.94,24.5,4.06,15.89,4.18,29.71,13.83,45.58,18.13,3.68,1,7.55,1.59,11.13,2.92,3.25,1.2,6.2,2.81,9.6,3.69,5.94,1.54,12.54,3.8,18.73,3.11l.28,0c4.32,2.07,9,3.09,14.07,1.81a13.24,13.24,0,0,0,6.24-3.23c.48-.5,3.28-5.16,1.64-2.52,2.36-3.8,3.71-6.63,4.08-11.21.74-9.16.57-18.13,2.53-27.19a106.2,106.2,0,0,1,5.86-17.51q1.69-2.37,3.42-4.72C568.19,456.49,558.34,448.8,553.71,454.52ZM151.48,451a11.41,11.41,0,0,0-1.36.67c-2.47-5.07-4.42-10.28-4.85-15.85-1-13,8.7-26.14,14.49-37.15,5.48-10.42,11.11-20.78,16.48-31.27,12,11.61,28,17.54,44.81,20.53,23.3,4.14,47.93,6.25,71.77,4.87a88.82,88.82,0,0,1-6.13,38.36c-2.49,6.27-5.8,13.8-11.5,17.79-5.52,3.87-13,3.26-19.31,2.18-17.08-2.93-33.16-8.48-50.69-9.16A133.24,133.24,0,0,0,151.48,451Z" fill="#fd4f00"/>
    <path d="M435.64,243.64a3,3,0,0,0-2.18-2.18,2.63,2.63,0,0,0-2.41.31,3.31,3.31,0,0,0-1.44,3.53c.84,3.82,1.71,17.33-6.35,13.8-6.32-2.77-3.66-12.11-3.23-17.28.16-1.88-2.76-2.65-3.58-1-3.95,8.07-4.62,23,7.43,24.56,4.36.54,8.32-2,10.55-5.61C437.46,254.86,436.74,249.06,435.64,243.64Z" fill="#fff"/>
    <path d="M464.08,246.76a11.58,11.58,0,0,0-.73-1.45c.56-2.07-2.05-4.3-4.22-3.2a3.47,3.47,0,0,0-1.57,4c.26,1.05,1.05,1.88,1.37,2.92a8.7,8.7,0,0,1,.27,3.48c-.28,2.21-1.84,4.57-4.38,4.26-2.25-.28-3.37-3.4-4.09-5.23-.4-1-1.87-9.91-3.41-9.26-3.28,1.36-1.53,7.95-.72,10.4,1.26,3.8,3.2,8.09,7.59,8.73a8.83,8.83,0,0,0,9.24-5.21,13.26,13.26,0,0,0,1.11-6.22A14.72,14.72,0,0,0,464.08,246.76Z" fill="#fff"/>
    <path d="M416.17,332.35a36.76,36.76,0,0,0-5.5-8.84,32.41,32.41,0,0,0-18.42-11.12c-5.86-1.28-8.36,7.77-2.48,9A31.8,31.8,0,0,1,405,329.2a30.63,30.63,0,0,1,5.15,6.68c1.61,2.67,2.68,3.48,5.24,5.25a.15.15,0,0,0,.22-.06C417.29,337.76,417.69,335.88,416.17,332.35Z" fill="#fff"/>
  </g>
  <g id="b58c70b8-74a2-4b8a-8932-9a29bce271e9" data-name="Layer 5">
    <g>
      <path d="M233.83,669.51,222.44,639c17.09-30.75,27.62-66.93,27.62-124.46l48.71,23.93c0,40.16-12.25,63.79-25.92,88H309V518h50.69V626.5h19.37v43H359.71v45.57H309V669.51Z" fill="#1d1d1b" stroke="#fff" stroke-linecap="round" stroke-linejoin="round" stroke-width="9"/>
      <path d="M472.49,514.57c47.85,0,82,35.32,82,101.4s-34.17,102.53-82,102.53-82-36.46-82-102.53S424.64,514.57,472.49,514.57Zm0,159.5c21.64,0,27.91-29.62,27.91-58.1s-6.27-57-27.91-57-27.91,28.48-27.91,57S450.84,674.07,472.49,674.07Z" fill="#1d1d1b" stroke="#fff" stroke-linecap="round" stroke-linejoin="round" stroke-width="9"/>
      <path d="M607.48,578.09c-6.83,7.4-17.94,14.24-29.33,17.08l-20.22-45.28c23.07-4.27,45.85-14.24,60.94-31.9h39.59V715.08H607.2V607.71c0-12.54,1.42-29.62,1.42-29.62Z" fill="#1d1d1b" stroke="#fff" stroke-linecap="round" stroke-linejoin="round" stroke-width="9"/>
    </g>
  </g>
</svg>
