<svg xmlns="http://www.w3.org/2000/svg" viewBox="0 0 800 800">
  <title>http-illustration-404</title>
  <g id="7317a607-214b-4f98-9897-69cd58d43e2b" data-name="Layer 2">
    <g>
      <path d="M263.94,690.86,253,661.5c16.46-29.63,26.62-64.48,26.62-119.9l46.91,23c0,38.68-11.8,61.46-25,84.78h34.85V544.89h48.84V649.43h18.65v41.43H385.21v43.9H336.37v-43.9Z" fill="#1d1d1b"/>
      <path d="M487,541.6c46.09,0,79,34,79,97.68s-32.93,98.77-79,98.77-79-35.12-79-98.77S440.9,541.6,487,541.6Zm0,153.65c20.85,0,26.89-28.54,26.89-56s-6-54.88-26.89-54.88-26.89,27.44-26.89,54.88S466.14,695.25,487,695.25Z" fill="#1d1d1b"/>
      <path d="M581.09,690.86l-11-29.36c16.46-29.63,26.61-64.48,26.61-119.9l46.92,23c0,38.68-11.8,61.46-25,84.78h34.85V544.89h48.83V649.43H721v41.43H702.36v43.9H653.53v-43.9Z" fill="#1d1d1b"/>
    </g>
  </g>
  <g id="c0cc3edf-682a-4cbe-8d61-65b13cd2b5dd" data-name="Layer 6">
    <path d="M531.86,546.64c-.85-6.49-7.12-6.94-12.27-7.51-6.33-.7-9.81-7.22-16.42-8.16s-14.39.89-20.84,2.47a88.28,88.28,0,0,0-16,5.6,237,237,0,0,1-23.16-73.93,126.21,126.21,0,0,0,7.65-10.84,127.53,127.53,0,0,0,10-18.11,168,168,0,0,0,12-37.74,188.35,188.35,0,0,0,3-42c-.55-15.51-4.16-31.45-7.83-46.49-3.35-13.76-7.51-27.48-11.95-41a97.76,97.76,0,0,0,50.6.5,90.07,90.07,0,0,0,12.16-3.71c6,.05,10.56-5.26,12.18-11.15,2.37-8.6-1.32-17.84-3.07-26.2-2-9.66-3.51-19.49-4.55-29.31-.55-5.29-.53-11-2.39-16-1-10.06-7.48-21.19-14-26.62a3.73,3.73,0,0,0-5.61,1.19.83.83,0,0,0-.08.22,3,3,0,0,0,.4,2.68c1.88,2.91,3.76,5.69,5.37,8.64-3.62-4.33-8.38-7.56-13.64-8.36-4.7-.72-7.84,5.19-3.37,8,3.91,2.44,7.89,4.34,11,7.89a27.07,27.07,0,0,1,4.42,7.23,31.62,31.62,0,0,1-4-2.37c-2.59-1.84-5.1-4.28-8.16-5.27-1.36-.44-3.28.79-3.08,2.35,1,7.66,9.86,12.47,16.78,15a110.8,110.8,0,0,0-2,19.62c-.07,8.39.34,17.4,2.54,25.72-24.29-1.67-43.85-20-60.31-36.1-7.65-7.5-15-17.15-24.86-21.83-4.92-2.32-10.31-3.08-15.05-1.71a39.51,39.51,0,0,1,.15-8.7c.1-.68.22-1.35.36-2,1.17.63,3.43.85,4.54,1.22,3.56,1.18,7.06,2.56,10.57,3.88,6.67,2.52,13.39,4.68,20.51,5.45,23.43,2.54,47-16,51.94-38.68a4.56,4.56,0,0,0-7.55-4.4c-5.55,5.11-13.14-2.16-15.92-6.71l-.68-1.18c-.05-.87-.13-1.74-.23-2.59a66.74,66.74,0,0,0-6.29-21.71c-7.37-14.65-24.41-17.5-39.18-15C413.18,91,402,98.21,394.05,107.78c-.67.75-1.32,1.51-1.94,2.31C383,121.85,380,136,379.33,150.59c-.4,9.16-.1,18.34-.62,27.49,0,.91-.14,1.81-.22,2.71a122.54,122.54,0,0,0-10.85,24.15c-2.16,6.27-4.31,12.52-6.28,18.85-.33,1.06-.67,2.1-1,3.13q-2.06,4-4.37,7.86a131,131,0,0,1-12.86,18c-4.24,4.92-10.39,10.23-11.91,16.8s2.53,11.46,8.05,14.47c6.08,3.32,12.33,6.35,18.44,9.64a164.81,164.81,0,0,1,17.67,10.75,64.89,64.89,0,0,1,7.19,6.33q-1.32,1.35-2.73,2.61c-12.38,11-29.71,14.28-43,24a85.1,85.1,0,0,0-29.07,38.14,81.92,81.92,0,0,0-5.05,20.56A118.09,118.09,0,0,0,300,422.18a6.19,6.19,0,0,0-.63,4.76c.82,3.64-3.13,7-6.41,7.52-5.56.94-11.32-3.51-15.09-7A67.69,67.69,0,0,1,261,401.25C252.42,377.94,254.57,353,259,329c8.37-45.31,26-97.61-4.71-138.6a77.21,77.21,0,0,0-29.2-23.57c-14.26-13.26-33.85-19.82-53.31-19.17-23.29.78-46.56,7.6-67.36,17.88a90.5,90.5,0,0,0-42.48,42.66,129.13,129.13,0,0,0-15.31,41.17c-4.46,23.33-1.15,47.92,10.31,68.84a81.48,81.48,0,0,0,21.42,25.42c8.67,6.68,19.87,9.81,30.62,10.94a4.06,4.06,0,0,0,1.82-.2c2.76.8,5.68-2.72,4.27-5.73-4.84-10.38-6.95-21.88-1.68-32.61A33.83,33.83,0,0,1,135,298.28c2.09,9.51,0,19.66.15,29.34A146.32,146.32,0,0,0,261.67,469.51c19.3,2.54,41.24,0,52.72-16.18,1.3,2.27,2.67,4.5,4.06,6.73,1.53,2.46,3.17,5.39,2.37,7.27-1.49,3.46-6.31,7.17-9.4,10.21-4.05,4-8,8.51-9.28,14.19-1.77,7.75,2.2,14.79,8.15,19.49s12.06,8.88,16.64,15.27a61.44,61.44,0,0,1,10,23.43c2,9.05,10.23,14.76,18.94,9.25,5.06-3.2,9.54-7.3,14.6-10.36,4.61.81,9.26,1.1,13.86,2.13A50.89,50.89,0,0,1,400,557.55c5.87,3.61,12.93-2.35,11.33-8.71-3.77-14.93-23.38-20.4-36.66-16.76C366.61,534.29,359.59,539,353,544c-3.42-2.61-5.72-21.42-5.9-23.76a106.71,106.71,0,0,1,.24-21.67,62.85,62.85,0,0,0,49.51-12.62,213.5,213.5,0,0,0,60.85,68.6,4.05,4.05,0,0,0,3.91.7,2.9,2.9,0,0,0,2.31-.23c12.88-6.67,29.9-15.38,44.11-7.17,5.12,2.95,8.77,8.68,15.36,8.13C528.08,555.56,532.51,551.6,531.86,546.64ZM398.34,279.34a65.06,65.06,0,0,1-6.06,17.89c-1.38-2.17-2.83-4.21-4.22-6a62.43,62.43,0,0,0-9.4-10c-1.8-1.51-3.7-2.87-5.57-4.29-.46-.34-2-1.85-3.37-3.1.27-.23.52-.46.74-.63,1.89-1.43,3.78-2.85,5.66-4.29A138.41,138.41,0,0,0,386.79,260a118.57,118.57,0,0,0,9.9-10.32C399.28,259.31,400.22,269.12,398.34,279.34Z" fill="#fd4f00"/>
    <path d="M434.79,28.83c-.49-2.27-3.65-2-4.29,0-3.65,11.09-15.41,17-20.18,27.61a34.89,34.89,0,0,0-1.58,24.92,45.88,45.88,0,0,0,1.17,8c.83,3.5,5.39,2.27,5.77-.78,1.38-10.77,10.08-19,14.95-28.3A46.25,46.25,0,0,0,434.79,28.83Z" fill="#fd4f00"/>
    <path d="M471.6,40.77c-10.24,7.16-22.81,8.81-32.13,17.66a43.61,43.61,0,0,0-9.91,14c-1.08,2.48-2.34,5.35-2,8-.1.19-.21.38-.31.58a3.56,3.56,0,0,0,4,5.17c20.6-5.44,45.19-18,45.32-42.54C476.52,41.27,473.67,39.33,471.6,40.77Z" fill="#fd4f00"/>
    <path d="M447.1,119.1a4.09,4.09,0,0,0-8.18,0c-.33,4.39-.63,10.41,2,14.16,2.49,3.51,7.22,2,7.71-2.09C449.13,127.33,447.41,123,447.1,119.1Z" fill="#fff"/>
    <path d="M463.07,122.94a35.29,35.29,0,0,1-1.89-8.85c-.32-4-6.35-4.16-6.37,0,0,5.75.38,15.72,6.72,18.12a2.28,2.28,0,0,0,2.77-1.57C465.07,127.88,464,125.52,463.07,122.94Z" fill="#fff"/>
    <path d="M458,165.7c-8.44-1.91-16.87-4.17-25.43-5.43a2,2,0,0,0-1.07,3.88c8,3.14,16.49,5.36,24.75,7.88C460.28,173.26,462.08,166.63,458,165.7Z" fill="#fff"/>
  </g>
  <g id="3bcf6f69-6d54-42db-a078-cccae8b592f1" data-name="Layer 5">
    <path d="M528.76,51c.16-2.22-2.89-2.27-3.59-.49-.59,1.51-2,2.8-2.66,4.33a33.21,33.21,0,0,0-1.38,4.62c-1,3.74-2,7.48-3,11.23-1.83,6.92-4.1,13.58-2.61,20.77.5,2.41,3.5,2.22,4.71.62,4.37-5.8,5.07-13.11,6.37-20.06.65-3.51,1.27-7,1.91-10.54a39.46,39.46,0,0,0,.82-4.8C529.39,54.77,528.64,52.83,528.76,51Z" fill="#dedfe1"/>
    <path d="M563.1,57.67c-4.16,3.12-6.38,7.6-9,12-3,5-5.85,10.16-8.72,15.27-5.24,9.33-12.48,19.37-14.9,29.91a.52.52,0,0,0,.86.5c8-6.86,13.41-17.56,19.12-26.31,3-4.64,6.12-9.24,9-14s6.42-9.19,7.3-14.58C567.05,58.63,565,56.22,563.1,57.67Z" fill="#dedfe1"/>
    <path d="M582.85,116c-8.69,2-17.33,9.08-24.29,14.47-3.26,2.52-8.13,5.41-10.51,8.81-.42.61-1.71,3.91-.54,4.38,3.85,1.52,5.29-.3,8.6-2.35s6.43-3.82,9.72-5.61c6.68-3.61,14.83-6,20.94-10.41C591.31,122,588.74,114.65,582.85,116Z" fill="#dedfe1"/>
    <path d="M599,200.2c-.7-4.64-5.2-5.9-9.08-7.25-4.66-1.63-9.32-3.21-13.95-4.93l-28.69-10.61c-3.06-1.14-5.21,3.89-2.24,5.31l27.61,13.19c4.45,2.13,8.84,4.37,13.24,6.58,3.73,1.86,7.76,4.19,11.6,1.41A3.49,3.49,0,0,0,599,200.2Z" fill="#dedfe1"/>
  </g>
</svg>
