<svg xmlns="http://www.w3.org/2000/svg" viewBox="0 0 800 800">
  <title>http-illustration-504</title>
  <g id="8cdcaa0a-9bc2-4fbc-a3d2-9d514ff43e02" data-name="Layer 2">
    <g>
      <path d="M224.1,645.66l40.09-21.1c1.87,13.13,8.67,21.56,20.86,21.56s19-10.08,19-23.2-6.8-23.21-19-23.21c-11.25,0-16.88,8.21-19.22,16.17l-36.57-16.17,10.08-82.05h96.11V554H273.33l-1.17,9.61a163.63,163.63,0,0,1-3.52,17.81l.47.24c5.39-6.1,15.24-12,29.3-12,25.32,0,47.59,19.46,47.59,53.22,0,35.63-25.32,59.78-60,59.78C255.05,682.7,232.54,667.22,224.1,645.66Z" fill="#1d1d1b"/>
      <path d="M425.24,514.85c39.38,0,67.51,29.07,67.51,83.45s-28.13,84.4-67.51,84.4-67.51-30-67.51-84.4S385.86,514.85,425.24,514.85Zm0,131.27c17.81,0,23-24.37,23-47.82s-5.16-46.88-23-46.88-23,23.44-23,46.88S407.42,646.12,425.24,646.12Z" fill="#1d1d1b"/>
      <path d="M511.51,642.38l-9.38-25.09C516.2,592,524.87,562.2,524.87,514.85L565,534.54c0,33.05-10.08,52.51-21.34,72.44h29.77V517.66h41.73V607h15.94v35.4H615.12v37.5H573.39v-37.5Z" fill="#1d1d1b"/>
    </g>
  </g>
  <g id="6718eb52-2534-4c3e-8b39-d5b00d2c3e3f" data-name="Layer 6">
    <path d="M203.25,265.58c-1.42-12.7-4-25.36-6.23-37.94-1.14-6.29-11.47-4.85-11.15,1.51.61,12.11.94,24.39,2.38,36.43.48,4,3.1,7.5,7.5,7.5C199.45,273.08,203.7,269.63,203.25,265.58Z" fill="#fd4f00"/>
    <path d="M264.35,246.68c-1.76-12.21-6.52-24.05-11.75-35.15-1.86-4-7.61-3.31-9.65,0q-5.59,9-10.8,18.32a63.48,63.48,0,0,1-6.79-10.15c-3.16-6-11.6-1.65-10.43,4.4,2.48,12.83,2.61,26.17,6.35,38.76,1.51,5.08,9.71,4.31,9.49-1.28a156.86,156.86,0,0,0-2.05-17.78c.11.13.21.26.32.38,2.5,2.92,7.42,1.87,9.21-1.19q4.37-7.43,8.53-15a170.51,170.51,0,0,1,4.37,22.31c.53,3.69,5.17,5.64,8.42,4.78C263.51,254.06,264.87,250.32,264.35,246.68Z" fill="#fd4f00"/>
    <path d="M315.14,230.58a141.4,141.4,0,0,0-10.27-11.65c-.1-2.66-2-5.35-4.76-5.14l-.3-.34c-5.05-5.73-9.5-12-14.6-17.66-2-2.27-6.08.1-5.14,3a21.13,21.13,0,0,1,.9,5.34,3,3,0,0,0-.53.82c-4.73,11.19-5.32,25-4.82,37,.32,7.73,12.63,7.58,11.94,0-.21-2.3-.54-4.58-.91-6.85s-.39-4.26-.5-6.39c2.89-1.13,5.78-2.19,8.72-3.13a80.81,80.81,0,0,0,9.67,13.23C309.67,244.19,319.84,236.8,315.14,230.58Zm-24.91-12.75q-2.1,1-4.12,2.12c.14-2.67.41-5.33.63-8C287.89,213.93,289.06,215.89,290.23,217.83Z" fill="#fd4f00"/>
    <path d="M365.93,191.51c-7.29-4.39-19.73.64-22.17,8.35-1.36,4.27,2.31,9,6.73,8.85a11.77,11.77,0,0,0,4.63-1.08,16.32,16.32,0,0,1-.87,3.64c-2.29,5.37-6.95,8.77-12.8,6.5-6.29-2.43-9-8.94-8.49-15.35.39-5.13,4.94-19.19,12.34-15.5a.28.28,0,0,0,.41-.17c2.22-5.92-3.89-9.92-9.4-8.56-7.08,1.76-11.85,10.12-14.17,16.44-5.34,14.49.35,30.88,15.43,36.28,15.27,5.47,27.29-5.59,31.73-19.45C371.41,204.88,373.05,195.78,365.93,191.51Z" fill="#fd4f00"/>
    <g>
      <path d="M404.39,178.33c0,.13,0,.26.06.39A3.93,3.93,0,0,0,404.39,178.33Z" fill="#fd4f00"/>
      <path d="M426.21,195.73a5.57,5.57,0,0,0-4-4c-6.12-1.58-10.43,4-15.62,6.44a29.38,29.38,0,0,1-8.13,2.46c-3.29.48-4.05.45-5.42-2.47-1-2.11-1.87-4.28-2.67-6.49l2.62-1.65c3.3-2.08,6.85-3.72,9.89-6.16,1.54-1.24,1.77-3.37,1.53-5.18,0,.05-.37-1.39-.44-1.53a8,8,0,0,0-1.09-1.38c-1.28-1.57-3.71-1.91-5.56-1.47a23.3,23.3,0,0,0-10.25,5.83c-.1-.45-.21-.9-.3-1.34-.4-1.91-1.54-10.61-5.83-8-3.12,1.94-2.6,4.79-2.37,8.15a104.76,104.76,0,0,0,1.49,11.83,18.15,18.15,0,0,0-.5,1.81,2.59,2.59,0,0,0,1.4,3c1.15,5.85,2.93,12.55,7.92,15.62,5.93,3.66,15.31,2.19,21.58.2C417.6,209.23,427.69,204.51,426.21,195.73Z" fill="#fd4f00"/>
    </g>
    <path d="M406,147a95.07,95.07,0,0,0-20.36,10c-4.56,3.07-12.07,7.34-12.64,13.35-.1,1,.88,1.64,1.73,1.74,5.18.6,11.27-4.64,15.73-6.85A120,120,0,0,1,409,157.82C415.93,155.72,412.69,144.49,406,147Z" fill="#fd4f00"/>
    <path d="M185.88,344.35c-1.1-2.8-3.15-4.62-6.25-4.75a5.82,5.82,0,0,0-3.27.88,6.66,6.66,0,0,0-3,7.32c1.44,6.6,5.5,12.36,6.62,19,.6,3.56.85,16.54-4.63,16.28s-6.43-9.94-7.21-13.68a179.63,179.63,0,0,0-5.88-22.61,3.46,3.46,0,0,0-6.77.92c-.7,15.15-1.66,49.35,21.49,48.27,10.59-.49,15.07-11.57,16.24-20.61C194.74,363.87,190,354.74,185.88,344.35Z" fill="#fd4f00"/>
    <path d="M233.3,351.38c-.93-6.51-1.38-18.63-8.06-21.79-2.67-1.26-5.83-.75-7.43,2-2.1,3.55-1.34,6.06-.31,9.87s1.93,7.76,2.61,11.7c.6,3.44,1,6.9,1.26,10.36-1.8-2.23-3.46-4.6-5.23-6.46a59.54,59.54,0,0,0-16.8-12.36c-3.48-1.7-7.65,1.11-6.63,5.1,1.87,7.35,3.15,14.88,5.57,22.09.34,1,3,9.74,5.93,7.4,3.2-2.56.74-8.61.06-11.9S203,361,202.5,357.73a47.22,47.22,0,0,1,9,10.36c4,6.18,7.95,11.17,14.92,14.07,4,1.68,7.59-2.45,7.86-6A113,113,0,0,0,233.3,351.38Z" fill="#fd4f00"/>
    <path d="M276.46,337.66c-1-7.8-5.25-16.62-13.28-19.16-9.06-2.87-17.76,5-23.22,11.26-.92,1.05.29,2.95,1.6,2.06,4.34-3,11.82-8.2,17.34-7.79,6.74.5,9.35,9.29,9.42,14.84a25.65,25.65,0,0,1-4.2,14.15,23,23,0,0,1-3.6,4.4c0-.1.05-.19.07-.3.4-2.7.6-4.59-.6-7.09a2.31,2.31,0,0,0-1.26-1.15c-.81-1.79-1.71-3.55-2.38-5.35a87.83,87.83,0,0,1-3.21-11.16c-1.06-4.66-9.12-3.75-8.51,1.16.94,7.6,1.77,18.53,6.48,24.83a6.47,6.47,0,0,0,4.46,2.35c-1,.26-2.53.24-1.25.65-7-2.22-11.9,8.86-5.06,12,8,3.69,16.48-5.32,20.88-11.43A34.75,34.75,0,0,0,276.46,337.66Z" fill="#fd4f00"/>
    <path d="M319.25,323.53c-4.31,2.21-7.87,6-12.1,8.45a49.8,49.8,0,0,1-6.62,3.3c-2.88,1.16-2.41,1.77-3.83-1.37-.46-1-.88-2.05-1.27-3.1,1.29-.85,2.52-1.8,3.84-2.68,2.53-1.68,5.33-3,7.6-5.05a3.6,3.6,0,0,0,.95-3.58,5.65,5.65,0,0,0-.37-.88c-.83-1.58-2.57-1.92-4.16-1.69-3.37.47-6.42,2.65-9,4.7-.46.36-.91.73-1.34,1.11-.38-1.43-.74-2.87-1.1-4.3l0-.11c1-.61,2-1.17,2.9-1.77,3-2.1,5.93-4.26,8.86-6.45,3.9-2.94,8.24-5.6,11.47-9.26a3.47,3.47,0,0,0,1.8-3,4.85,4.85,0,0,0-5.14-5.05c-4.53.05-9.36,5.54-12.66,8.14-4.41,3.47-9,6.85-13.1,10.73-2.57,2.44-5.11,5.53-3.84,9.24a3.73,3.73,0,0,0,2,2.06c.13,2.78.58,5.51.82,7.25.75,5.66,1.5,14.17,7.2,17.3s13.32-.37,18.74-2.8c6.2-2.78,13.38-6.74,17-12.65C331.27,326.51,324.59,320.8,319.25,323.53Z" fill="#fd4f00"/>
    <path d="M396.68,317.05c-1.47-5.35-6.72-7.69-11.5-9.27-9.45-3.12-19.45-5.61-28.93-9,4.44-6.6,7.45-14.37,6.38-22.2-1.83-13.42-15.95-8.6-23.09-2.74-8.11,6.64-12.73,16.88-13.2,27.26-.5,11.18,3.82,25,12.69,32.34,4.29,3.56,11.3-.9,8.11-6.26Q343.51,321,340,314.76a30.54,30.54,0,0,1-2.22-6.93,26.93,26.93,0,0,1,3.55-19.12,24.67,24.67,0,0,1,5.66-6.43c1.24-1,2.66-1.57,4-2.4-.23,1.15-.2,2.79-.43,3.66a24.74,24.74,0,0,1-1.55,4.35,18.34,18.34,0,0,1-6.77,8c-4.74,3.09-4,10.45,1.58,12.1,8.06,2.36,15.88,6.13,23.67,9.27l10.9,4.37c2.66,1.08,3.28,1.42,4,2.15.58,3.26,3.42,6,7.21,4.78C394,327.11,398.18,322.51,396.68,317.05Z" fill="#fd4f00"/>
    <path d="M361.11,398.75c-3.85-12.87-18.46-17.65-30.67-15.18-6.67,1.35-7,9.22-3.07,13.13-5.26,5-8.08,13.83-7.08,20.33-6.8,1.64-13.08,5-19,8.66-4,2.48-8.33-3.37-10-6.79a18.61,18.61,0,0,1-.19-15.47c1.79-4,8.53-12.13,13.81-10.13,1.63.62,2.47-1.58,1.55-2.67-6.26-7.41-15.67-3.48-21.68,2.38a28.6,28.6,0,0,0-7.75,27.9c2.65,9.38,10.52,19.1,20.63,20.57,10.36,1.51,20.09-8.48,25.78-16.94,5.47,7.07,16.32,8.53,24.59,4.06C358.17,423.14,364.46,410,361.11,398.75Zm-16.3,17.39c-3.92,3.69-11.68,5.13-13.9-1.25-1-2.82-.47-11.48,2-16,4.72,0,12.8-2.68,15.85,2.25C351.62,405.79,348.26,412.87,344.81,416.14Z" fill="#fd4f00"/>
    <path d="M408.63,376.48a92.4,92.4,0,0,0-3.8-9.62q-1.05-2.34-2.27-4.59a16.58,16.58,0,0,0-.95-1.42,4.2,4.2,0,0,0-1.32-3.49c-.58-.58-1.38-1.1-1.94-1.7-5.56-6-16.44,2-11.54,8.91a67,67,0,0,1,10.66,23.66c-.68-.46-1.23-.84-1.53-1l-8.6-4.82c-5.43-3.06-12.88-6.09-17.31-10.48-4.12-4.08-10.92.07-9.56,5.56,2.41,9.8,6.22,21.85,13.68,29.15,1.92,2.89,9,2.42,7.46-3-1.44-4.93-4.07-9.39-5.86-14.19-.19-.51-.36-1-.54-1.54l.67.44c3.62,2.27,7.19,4.62,10.77,7,6.14,4,12.78,10.43,20.62,8.46a6.55,6.55,0,0,0,4.73-6.21A67.6,67.6,0,0,0,408.63,376.48Z" fill="#fd4f00"/>
    <path d="M449.38,367.21c-3.83-6.88-11.55-8.77-18.9-7.84-2.53.32-5.06,1-7.6,1.11a12.93,12.93,0,0,1-1.63-.07l.36-.68c1.58-2.08,6.79-10,10.17-6.44,1.11,1.16,3.27-.4,2.28-1.76-1.61-2.23-3.19-4.39-6-4.94-3.44-.68-6.75.71-9.4,2.87-5.6,4.55-12.68,14.71-3.81,19.94,7.22,4.25,15.86-1.24,23.37,1.44.51.18.73.69.85.79a2.15,2.15,0,0,1-.7,1,13,13,0,0,1-5.24,1.85,21.5,21.5,0,0,1-5,.22l-.39-.29a11.07,11.07,0,0,0-3.64-1.76c-3.69-1-7,.74-9.07,3.7l-.4.57c-1.65,2.33-1.74,6.68,0,9,6.7,8.95,16.73,7.24,25.8,2.94C448.42,385.07,454.11,375.69,449.38,367.21Z" fill="#fd4f00"/>
    <path d="M475,323.75c-2.81-2.41-6.37-1.27-9.31.16a98.4,98.4,0,0,0-23.28,16.24c-2.35,2.18-1.29,6.75,2,7.41l2.73.56a1.81,1.81,0,0,0,2.19-1.24c.06-.28.12-.56.19-.84,2.37-1.52,4.73-3.08,7.09-4.63a3.08,3.08,0,0,0-.13,1.2c.71,8.25,2.46,18.75,7.51,25.54,4.64,6.25,13.54,1.06,10.39-6.07-1.62-3.68-4.24-7-6.27-10.45-1.84-3.15-3.37-6.42-4.88-9.72-.19-1.72-1.84-2.57-3.46-2.54.83-.53,1.66-1.07,2.51-1.58,2.32-1.43,4.65-2.83,6.94-4.3,1-.65,2-1.35,3.06-2a6,6,0,0,1,1-.63,2.6,2.6,0,0,0,2.95-1.27A4.54,4.54,0,0,0,475,323.75Z" fill="#fd4f00"/>
    <path d="M531.35,345.46h.21c-1.49-6-8.13-8.17-13.24-10.7q-4.71-2.33-9.54-4.37c1.65-3.24,3.44-6.42,4.42-10.07,1.31-4.87,2.52-10.64,1.47-15.67-2.56-12.2-16.62-8.59-24.37-3.65-19.35,12.36-13.7,42.53-.89,57.59,3.45,4.06,8.78-.34,7.94-4.67h.11a51.23,51.23,0,0,0-3.2-8.27,59.4,59.4,0,0,0-2.34-6.07c-.6-1.29-1.25-2.56-1.91-3.81-.27-.84-.52-1.68-.73-2.54-1.47-6.1-1.34-13.21,2.18-18.63a16.17,16.17,0,0,1,7-5.89,23,23,0,0,1,5.66-1.71h.12a6,6,0,0,1,.09,1.47c.21,5.72-2.35,16.53-7.61,19.79-3.77,2.34-4.77,9.3,0,11.36a157.27,157.27,0,0,1,15.37,7.54c5.06,2.87,9.1,7,15.24,5.7C531,352.06,532.18,348.53,531.35,345.46Z" fill="#fd4f00"/>
    <path d="M555,299.75a6,6,0,0,0-4.36-4.35l-1-.15,0,.12a4.6,4.6,0,0,0-4.43,1.06l-.63.57a6.1,6.1,0,0,0-1.61,6.07c3.64,9.5,3.93,21.15,1.88,31.09,0,.25-.43,2.54-.68,2.54.3,0-1.61-2.18-1.67-2.25a71.93,71.93,0,0,1-4.83-5.48c-3-4.07-5.08-8.61-7.22-13.16-1.08-2.29-5.17-1.24-4.89,1.33,1,9.33,10.66,36.07,24.41,28,6.07-3.55,6.82-13.26,7.31-19.45C558,316.85,556.54,308.44,555,299.75Z" fill="#fd4f00"/>
    <path d="M605.75,304.14c-.88-2.06-4.13-3.26-6.19-2.52-5.6,2-6.84,7-9.7,11.71-2.21,3.62-6.54,8.25-11.26,6.58-4.3-1.52-6.12-7.13-6-11.25a17.84,17.84,0,0,1,2-7.7,18.43,18.43,0,0,1,2.29-3.49l1-1.08a2.16,2.16,0,0,0,1.14-1.24,1.63,1.63,0,0,0,.88.15c2.64-.32,4.33-2.91,2.62-5.37-2.56-3.69-7.22-.64-9.71,1.39-7.92,6.46-11.79,17.74-8.47,27.57,3.53,10.45,14,16.13,24.62,12.46C598.59,328,610.27,314.64,605.75,304.14Z" fill="#fd4f00"/>
    <path d="M622,295.27a61.77,61.77,0,0,1-5.79-10.74c-1.94-4.45-9.85-2.3-9.3,2.51.87,7.48,4.52,23.7,14.41,23.35a5.31,5.31,0,0,0,5-3.84C627.38,301.68,624.54,299,622,295.27Z" fill="#fd4f00"/>
    <path d="M643.18,289.09A140.08,140.08,0,0,0,635,270.84c-2.52-4.63-5.28-10.68-11.69-9-2.63.68-5.19,2.5-7.59,3.71-3.57,1.79-7.16,3.53-10.74,5.29-5.93,2.92-13.4,5.53-17.88,10.55-1.84,2.07-.69,5.87,2.39,5.76,6.23-.22,12.34-3.69,17.94-6.2l9.13-4.09c1.57-.71,4.35-2.43,6.7-3.35,1.08,2.62,1.6,6.48,2,8.25,1,3.84,1.71,7.72,2.33,11.63C629.26,303.58,646.87,299,643.18,289.09Z" fill="#fd4f00"/>
    <path d="M690.22,255.27c-3-5.22-8.68-6.92-14.26-7.72-6.41-.91-16.13-2.21-20.78,3.06a6.82,6.82,0,0,0,.29,9.9,13.83,13.83,0,0,0-.72,16.12c5.51,9.11,17.75,11.1,26.51,5.58C689.44,277.05,695.53,264.44,690.22,255.27Zm-10,9.7a11.64,11.64,0,0,1-3.15,6.38A10.27,10.27,0,0,1,663.88,273c-3-1.95-4.38-6.28-3.65-9.94a6.7,6.7,0,0,0,1.64.21c1.93,0,3.62-1,5.47-1.32a33.76,33.76,0,0,1,8.46-.34C678.62,261.83,680.56,261.75,680.25,265Z" fill="#fd4f00"/>
    <path d="M739.26,236.52c-3.67-7.87-7.53-15.65-11.3-23.46-4.54-9.4-18.86-1.15-14.07,8.22q4.61,9,9,18.14c.91,1.89,1.78,3.79,2.66,5.69l-8.16-2.75c-6.9-2.32-15-4.68-21.19-8.44-5.61-3.4-12.5,3.4-9,9a160.84,160.84,0,0,1,7.72,14.35c2.3,4.73,4.27,9.74,7.74,13.74,3.95,4.56,10.41-.54,9.2-5.37h0c-1-4.81-3.85-9.28-6.06-13.63-.16-.33-.32-.65-.49-1,2.42,1.08,4.79,2.19,7.05,3.21q10.21,4.61,20.34,9.38c4.84,2.27,9.52.33,11.4-4.64C747.06,251.15,742.51,243.51,739.26,236.52Z" fill="#fd4f00"/>
  </g>
</svg>
