<svg xmlns="http://www.w3.org/2000/svg" viewBox="0 0 800 800">
  <title>http-illustration-403</title>
  <g id="ac41702a-2a4e-4520-9fa7-1c91a6c2ce00" data-name="Layer 3">
    <ellipse cx="630.1" cy="658.55" rx="28.98" ry="9.33" fill="none" stroke="#dedfe1" stroke-miterlimit="10" stroke-width="3"/>
    <ellipse cx="630.1" cy="660.76" rx="53.36" ry="17.18" fill="none" stroke="#dedfe1" stroke-miterlimit="10" stroke-width="3"/>
    <ellipse cx="630.1" cy="664.77" rx="82.19" ry="26.47" fill="none" stroke="#dedfe1" stroke-miterlimit="10" stroke-width="3"/>
  </g>
  <g id="3aa642b2-9c32-4525-89e5-4f1a0ea9226a" data-name="Layer 2">
    <g>
      <path d="M165,711l-10.95-29.28c16.42-29.54,26.54-64.29,26.54-119.56l46.79,23c0,38.58-11.76,61.29-24.9,84.55h34.75V565.47H286V669.72h18.61V711H286v43.78h-48.7V711Z" fill="#1d1d1b"/>
      <path d="M394.3,562.19c46,0,78.8,33.93,78.8,97.4s-32.83,98.5-78.8,98.5-78.79-35-78.79-98.5S348.34,562.19,394.3,562.19Zm0,153.22c20.8,0,26.82-28.46,26.82-55.82s-6-54.72-26.82-54.72-26.81,27.36-26.81,54.72S373.51,715.41,394.3,715.41Z" fill="#1d1d1b"/>
      <path d="M479.66,714.86l46.79-24.62c2.46,16.41,10.95,25.17,25.17,25.17s21.62-9.85,21.62-23S563.93,670,549.71,670c-12,0-20,4.65-28.46,9.58l-17-40.77,41.86-30.92H487.87V565.47H617v35l-33.1,23c-9.85,7.38-27.91,15-27.91,15l.55,1.09a69.22,69.22,0,0,1,7.93-.55c31.74,0,57.73,20,57.73,56.09s-30.09,62.93-69.49,62.93C516.6,758.09,489.51,740,479.66,714.86Z" fill="#1d1d1b"/>
    </g>
  </g>
  <g id="bc492113-2cd4-45e6-8d77-35024424a2f1" data-name="Layer 6">
    <path d="M523.08,352.41c-4.58-1.05-7.7,3.49-5.79,7.53a66.16,66.16,0,0,0,22.29,26,62.18,62.18,0,0,0,14.59,7.5c4.74,1.71,12.05,4.37,17,2.41a4,4,0,0,0,1.27-.82,2.9,2.9,0,0,0,3.34-2.52C579.89,365.21,542.49,356.84,523.08,352.41Zm29.36,22.83-1.8-1.27c.68.3,1.37.6,2,.92Z" fill="#fd4f00"/>
    <path d="M546.87,406.49c-14.41-20.76-44.17-18.46-65.19-11.61-4,1.31-4.32,6.15-1.11,8.5,10.23,7.47,21.1,15.16,33.93,17.06,9.44,1.4,22.67.09,28.09-8.84a2,2,0,0,0,.1-.21C545.51,412.15,549,409.53,546.87,406.49Zm-30.28,5.86a54.4,54.4,0,0,0,13-.93,21.18,21.18,0,0,1-3.89,1A29.62,29.62,0,0,1,516.59,412.35Zm19.37-3.8a5,5,0,0,0,.63-1.35c.31.2.62.4.92.61Z" fill="#fd4f00"/>
    <path d="M647.58,627.59a71.06,71.06,0,0,0-28.77-49.49c-10.41-10.79-26-21.23-37.18-28.14l-.69-.32a41.8,41.8,0,0,1-8.3-5l-2.48-1.43a5.31,5.31,0,0,1-2.77-3.79,46.25,46.25,0,0,1-4.66-7.13c-8.6-15.93-16.84-31.64-28.11-45.93-2.3-2.91-4.72-5.7-7.27-8.34a81.53,81.53,0,0,1,9.54-9.5c12.49,16.68,23.69,35.55,43,44.94,20.56,10,46.08,7.84,64.48-5.79,3-2.2,4-6.21,1.18-9.1q-8.18-8.32-16.31-16.67c-.39-.39-.77-.8-1.15-1.19A56,56,0,0,0,631,465.28a90.48,90.48,0,0,0-1.16-21.8c-2.44-14.21-9.91-27.71-21.51-36.38-7.62-5.69-16-7.69-25.36-5.66-8.42,1.84-16.73,5.8-24.45,9.54-16.44,8-29.38,19.65-43.93,30.37a161,161,0,0,1-21.33,13.08c-12.64-3.68-25.48-1-38.76,1.26-6.24,1.07-13.68,2.4-19.85,1.91-7.22-.57-14.7-2.88-21.39-5.62-28.05-11.51-47-36.85-62.52-61.76-14.32-22.94-27.34-46.85-48.62-64.28a81.46,81.46,0,0,0-63.73-17.88c-22,3-43.22,14.56-56.07,32.72a50.17,50.17,0,0,1-13.9-29.28c-2.33-19.24,7.39-37.12,22.38-48.73A79.54,79.54,0,0,1,219,249.06c11.93-3.16,24.19-2.91,36.43-2.58,13.59.36,27.28.7,40.6-2.5,11.88-2.84,22.52-8.78,32-16.4q1.77-1.44,3.51-3c16.86-8.65,28.3-25,33.76-43,.09-.29.16-.58.24-.86,1.94-3.47,3.77-7,5.47-10.4C381.5,149,385.15,126.27,379.47,103c-5.15-21.14-17.35-40.74-34.81-53.84-18-13.52-40.58-19.54-62.92-19.12C230,31,187.37,71.26,177.47,121.13c-1.89,9.47,9.41,13.65,15,6.31a34.75,34.75,0,0,1,13-10.64c2.76-1.28,12.15-5.32,13.35-.84s-5.86,8.8-8.7,10.63c-6.08,3.92-12.31,7.58-18.38,11.52-23.25,15.1-46.05,32.24-64.2,53.36-33.38,38.86-53.68,99-23.2,145.48,11.52,17.56,29.42,33.53,50.27,37.13a61.41,61.41,0,0,0-8,40.84c3.93,25.1,21.66,41.66,44.08,51.32,11.72,5,23.15,10.32,33.56,17.8,9.68,7,20.85,16.18,27.06,26.52.32.55.58,1.06.81,1.55-.69.58-1.38,1.17-2,1.79-3,2.91-5.59,6.3-8.32,9.45l-4.52,5.22c-2.41,1.76-4.74,3.63-7,5.65-4.49,4-7.95,9-12.32,13.12-2.17,2-4.23,3.39-5.42,6.26a12.26,12.26,0,0,0,2.37,12.74c10.24,10.76,27.2,8.45,40.48,8.47,8.19,0,22.58,2.61,22,13.25-.44,8.17,12.37,12.1,15.95,4.37a7.24,7.24,0,0,0,6.77-1.64c12.49-11.24,4.62-30-9.43-35.44-8.21-3.17-17.1-2.62-25.74-2.83a56,56,0,0,0,26-15.24,62.63,62.63,0,0,0,7.63-9.39A87.75,87.75,0,0,0,313,537.74c1.19,1.22,2.36,2.47,3.49,3.77a3.82,3.82,0,0,0,.36.34C324,556.61,326.65,574.18,329,590c.69,4.68,6.84,5.14,9.75,2.57a150.35,150.35,0,0,0,28.94-34.64c2.46-4-1.72-10.5-6.59-8.57a71.08,71.08,0,0,0-16,8.76,6.27,6.27,0,0,0-1.15-.46c-2.25-10.68-4.89-21.27-8-31.74a106.25,106.25,0,0,0-3.84-11.17c1.37,0,2.74-.1,4.1-.17a156,156,0,0,0,33.7-5.22c2.82-.81,5.62-1.72,8.39-2.7a39.09,39.09,0,0,0,7.76,5.53,134.64,134.64,0,0,0,16.79,7.39,66.85,66.85,0,0,0,16.63,6.11,88.25,88.25,0,0,1-12.31,9.07c-5.9,3.6-12.95,5.92-17.52,11.36-5.23,6.22-4.26,13.84.44,20,9.24,12.18,22.7,19.48,35.47,27.33,3,1.82,5.92,3.68,8.77,5.7,2.08,1.47,8.48,5.23,9.07,7.7.66,2.73-2.82,8-4,10.61-2.05,4.51-4.32,8.91-6.71,13.26-4.35,7.92,8,15.06,12.1,7.07,2.5-4.85,5-9.86,7.19-15-.51,3.16-1.18,6.33-2,9.56a5.32,5.32,0,0,0,2.38,5.85A5.19,5.19,0,0,0,455,639c2.37.19,4.27-1.76,5-3.8a56.32,56.32,0,0,0,3-19.57,22.06,22.06,0,0,1,1.21,2.49c.5,1.53.94,3.1,1.3,4.73,1.12,5.07,9.91,4.06,9.22-1.24-.06-.42-.14-.83-.21-1.24h0c0-.13-.07-.26-.11-.4a30.26,30.26,0,0,0-6.25-13.77,46.5,46.5,0,0,0-8.34-9.24,3.84,3.84,0,0,0-2.87-1,73.4,73.4,0,0,1-7.37-6.24c-4.95-5-10.26-10.46-14.18-16.28-1.24-1.83-5.36-6.82-5-9s4.13-2.9,6.25-3.93c17.11-8.21,34.83-24.76,42.52-43.69A233,233,0,0,1,519,541.88c7,5.51,13.32,11.61,17.34,19.65,4.2,8.4,8.13,14.14,17.18,17.82,17.39,7.07,36.91,6.48,54.18,13.66A35.83,35.83,0,0,1,620,601.3a6.05,6.05,0,0,0-.55.73c-3.68,5.83-10.63,13.47-6,20.58,3.46,5.34,10.75,5.63,16.42,4.65a94.55,94.55,0,0,1,.38,23.79c-.82,7.46,10.86,7.4,11.67,0a101.17,101.17,0,0,0,.36-17.91C645.22,633.21,648,631.38,647.58,627.59Zm-20.33-11.67a11,11,0,0,1-2.7.18c.39-.65.77-1.5,1-1.93l.95-1.5c.34,1.07.65,2.14.94,3.22Z" fill="#fd4f00"/>
    <path d="M602.42,508.81c-.52-.45-.69-1.07-1.46-1.48a7,7,0,0,0-1.77-.61,3.61,3.61,0,1,0,0,7,6.07,6.07,0,0,0,1.77-.6,4.13,4.13,0,0,0,1.27-1.23l-.06,0,.25-.22A2,2,0,0,0,602.42,508.81Z" fill="#fff"/>
    <path d="M591.62,452.54c-.54-.48-1.69-.2-1.59.66a3.54,3.54,0,0,1-5.25,3.26c-2.55-1.61-3.21-5.43-3.89-8.12-.36-1.4-2.71-1.15-2.58.35.36,4.46,2.19,11.13,7.66,11.54C589.7,460.51,595.6,456.16,591.62,452.54Z" fill="#fff"/>
    <path d="M617.11,447.73a1.71,1.71,0,0,0-2.83.75c-.5,1.9,0,3.94-1.85,5.35-2.52,1.92-5.66-1.07-5.78-3.63a1,1,0,0,0-2.07,0c-.26,4.27,3.86,8,8.13,7a7,7,0,0,0,4.64-3.5C618.24,451.87,618.65,449.29,617.11,447.73Z" fill="#fff"/>
  </g>
</svg>
